<svg xmlns="http://www.w3.org/2000/svg" width="600" height="250"><path style="fill:none;stroke:none" d="M0 0v250h600V0H0z"/><path style="fill:#ffdac1;stroke:none" d="M81 11c3.959 1.661 8.737 1 13 1-3.959-1.661-8.737-1-13-1z"/><path style="fill:#ffc59f;stroke:none" d="M94 11c5.707 2.395 13.846 1 20 1h42c-5.707-2.395-13.846-1-20-1H94z"/><path style="fill:#ffdcc3;stroke:none" d="M156 11c2.89 1.213 5.874.998 9 1-2.89-1.213-5.874-.998-9-1z"/><path style="fill:#fff1e7;stroke:none" d="M165 11c2.332.985 4.457.981 7 1-2.332-.985-4.457-.981-7-1z"/><path style="fill:#ffe5d2;stroke:none" d="M68 12c2.332.985 4.457.981 7 1-2.332-.985-4.457-.981-7-1z"/><path style="fill:#ffbc8f;stroke:none" d="M75 12.424C63.77 13.9 52.289 14.472 42 19.89 19.59 31.694 14.5 53.78 12.91 77c-1.433 20.929-.91 41.993-.91 63 0 25.339-2.546 57.219 14.808 77.961C36.81 229.916 51.223 234.183 66 236.75c17.172 2.983 35.602 1.25 53 1.25 21.477 0 43.709 1.655 65-1.428 8.464-1.226 17.359-3.069 25-7.064 34.25-17.909 29-62.991 29-95.508v-28c0-23.319 2.647-51.023-11.927-71C214.619 19.3 196.439 14.396 178 12.914 157.111 11.235 135.977 12 115 12c-13.113 0-26.994-1.283-40 .424z"/><path style="fill:#ffdbc1;stroke:none" d="M174 12c1.769.779 3.036.912 5 1-1.769-.779-3.036-.912-5-1z"/><path style="fill:#ffe7d5;stroke:none" d="M62.667 13.333c-.445.445.61.39.666.334.445-.445-.61-.39-.666-.334z"/><path style="fill:#ffd8bd;stroke:none" d="M184 13c1.248.685 1.549.749 3 1-1.248-.685-1.548-.749-3-1z"/><path style="fill:#ffe1cf;stroke:none" d="M57.667 14.333c-.445.445.61.39.666.334.445-.445-.61-.39-.666-.334z"/><path style="fill:#ffddc5;stroke:none" d="M190.667 14.333c-.445.445.611.39.666.334.445-.445-.611-.39-.666-.334z"/><path style="fill:#ffeadc;stroke:none" d="M195.667 15.333c-.445.445.611.39.666.334.445-.445-.611-.39-.666-.334z"/><path style="fill:#ffd4b7;stroke:none" d="M50.667 16.333c-.445.445.61.39.666.334.445-.445-.61-.39-.666-.334z"/><path style="fill:#000;stroke:none" d="M401 26v14h-7c2.452 1.932 4.939 2.396 8 3-1.978 6.693-1.026 14.748 2 21 2.102-5.86 0-15.568 0-22h7v-2h-7l-1-14h-2m-145 2v193h2V28h-2z"/><path style="fill:#ffe9db;stroke:none" d="M86 30c6.194 2.6 15.314 1 22 1h48c-6.194-2.6-15.314-1-22-1H86z"/><path style="fill:#ffd5b8;stroke:none" d="M156 30c2.613 1.098 5.164.993 8 1-2.613-1.098-5.165-.993-8-1z"/><path style="fill:#ffddc5;stroke:none" d="M71 31c1.506.683 2.315.826 4 1-1.506-.683-2.315-.826-4-1z"/><path style="fill:#f7f7f7;stroke:none" d="M75 31.424c-11.072 1.472-23.28 2.943-31.7 11.04C35.07 50.38 33.139 62.197 31.846 73 29.065 96.221 31 120.608 31 144c0 13.687-.015 27.497 2.424 41 1.204 6.664 2.685 13.556 6.966 18.999C49.57 215.67 63.365 216.867 77 218.17c18.18 1.737 36.724.83 55 .83 16.208 0 32.928.991 49-1.3 9.603-1.369 21.036-4.156 27.671-11.743 7.256-8.297 8.236-19.526 9.484-29.957 3.011-25.16.845-51.655.845-77 0-17.346 1.973-39.446-9.529-53.985-8.1-10.238-21.447-11.572-33.471-13.286-16.886-2.406-34.951-.729-52-.729-16.02 0-33.118-1.686-49 .424z"/><path style="fill:#ffdec9;stroke:none" d="M174 31c1.248.685 1.549.749 3 1-1.248-.685-1.548-.749-3-1z"/><path style="fill:#ffd7bd;stroke:none" d="M65.667 32.333c-.445.445.61.39.666.334.445-.445-.61-.39-.666-.334z"/><path style="fill:#ffe7d7;stroke:none" d="M181 32c1.248.685 1.548.749 3 1-1.248-.685-1.548-.749-3-1z"/><path style="fill:#ffe4d2;stroke:none" d="M61.667 33.333c-.445.445.61.39.666.334.445-.445-.61-.39-.666-.334z"/><path style="fill:#ffdbc3;stroke:none" d="M187 33c1.248.685 1.548.749 3 1-1.248-.685-1.548-.749-3-1z"/><path style="fill:#000;stroke:none" d="M302 62c-6.739-2.828-15.08.592-20.486-6.133-4.832-6.012-2.457-22.014 7.481-21.32 4.486.312 7.198 5.635 4.477 9.24-2.739 3.63-7.245 4.786-11.472 4.213 4.882 5.558 16.165-2.103 14.547-8.995-1.832-7.805-11.658-6.905-15.898-1.791-6.485 7.821-3.917 20.42 5.355 24.572 5.551 2.486 10.33 1.382 15.996.214m56 0c-6.747-2.831-14.048.472-19.581-6.108-5.269-6.267-3.156-22.24 7.566-21.23 4.3.406 6.92 5.576 4.396 9.124C347.56 47.753 342.42 48.432 338 48c6.434 4.799 19.174-2.444 14.678-10.891-3.234-6.078-11.466-4.403-15.284 0-8.194 9.45-1.933 23.816 9.606 26.196 3.835.79 7.329-.274 11-1.305m168 0c-6.769-2.84-14.875.513-20.347-6.214-4.834-5.942-2.58-21.93 7.343-21.24 3.824.266 7.336 4.764 5.292 8.36-2.484 4.37-7.734 5.768-12.288 5.094 5.243 5.97 16.639-2.772 14.482-9.956-2.178-7.252-11.958-5.504-15.833-.83-6.505 7.846-3.784 20.212 5.355 24.433 5.602 2.588 10.24 1.54 15.996.353z"/><path style="fill:#ffe8d7;stroke:none" d="M57.667 34.333c-.445.445.61.39.666.334.445-.445-.61-.39-.666-.334z"/><path style="fill:#000;stroke:none" d="M366 40c.001 7.832.434 15.895 4 23 2.209-6.161-3.319-12.863.742-18.945 4.201-6.29 10.593-4.86 14.263.95C388.471 50.49 388 56.797 388 63h2c0-7.787.604-23.5-10.004-25.242-5.123-.842-8.844 3.795-13.996 2.242m80 17c3.227 5.84 12.673 7.838 19 6.452 3.461-.758 7.948-3.288 7.534-7.44-1.01-10.131-17.237-4.208-21.992-10.29-2.525-3.23.159-6.144 3.474-6.958 3.629-.892 6.788.747 9.984 2.236-3.554-6.084-19.713-5.209-16.377 3.893 3.014 8.224 15.902 2.797 20.769 8.54 3.254 3.84-.744 7.146-4.397 8.033C457.502 63.042 451.562 59.911 446 57m88-16c0 8.036-.025 15.815 4 23 1.898-6.188-3.706-12.91-.127-18.985 4.006-6.8 10.946-6.562 14.899 0C555.957 50.305 555.996 57.03 556 63c4.598-6.731.842-23.255-8.015-25.243-4.852-1.09-9.17 3.168-13.985 3.243m-107-1.478c-4.727.967-9.474 3.783-11.257 8.479-3.437 9.054 5.638 16.875 14.257 15.056 4.773-1.007 9.134-4.16 10.413-9.057 2.111-8.082-5.322-16.133-13.413-14.478z"/><path style="fill:none;stroke:none" d="M426 41.545c-4.078.822-8.154 3.24-9.307 7.47-1.842 6.757 4.535 13.436 11.307 12.358 14.558-2.315 12.772-22.808-2-19.828z"/><path style="fill:#000;stroke:none" d="M309 42c2.133 7.406 6.426 14.208 10 21h2c3.404-5.855 6.139-12.49 8-19-4.439 3.816-6.16 9.311-7 15-7.384-3.632-6.45-12.916-13-17m155 0-1 2c1.263-.971 1.392-.694 1-2z"/><path style="fill:#ffd1b3;stroke:none" d="M16.333 51.667c-.055.055-.11 1.11.334.666.055-.055.11-1.11-.334-.666z"/><path style="fill:#ffd5b9;stroke:none" d="M234.333 53.667c-.055.055-.111 1.11.334.666.055-.055.111-1.11-.334-.666z"/><path style="fill:#ffdcc4;stroke:none" d="M15.333 54.667c-.055.055-.11 1.11.334.666.055-.055.11-1.11-.334-.666z"/><path style="fill:#ffe0cd;stroke:none" d="M215.333 56.667c-.055.055-.111 1.11.334.666.055-.055.111-1.11-.334-.666z"/><path style="fill:#ffdbc2;stroke:none" d="M235.333 57.667c-.055.055-.111 1.11.334.666.055-.055.111-1.11-.334-.666z"/><path style="fill:#ffe1cd;stroke:none" d="M216.333 60.667c-.055.055-.111 1.11.334.666.055-.055.111-1.11-.334-.666z"/><path style="fill:#ffd7bc;stroke:none" d="M33.333 61.667c-.055.055-.11 1.11.334.666.055-.055.11-1.11-.334-.666z"/><path style="fill:#ffeadb;stroke:none" d="M236.333 61.667c-.055.055-.111 1.11.334.666.055-.055.111-1.11-.334-.666z"/><path style="fill:#ffd8be;stroke:none" d="m101 63 1 1-1-1z"/><path style="fill:#ff9b59;stroke:none" d="M102 63c1.769.779 3.036.912 5 1-1.769-.779-3.036-.912-5-1z"/><path style="fill:#ffd5b9;stroke:none" d="m99 64 1 1-1-1z"/><path style="fill:#af2e42;stroke:none" d="M76 90c-3.199-2.224-6.15-5.523-10-6.566C58.47 81.393 51.945 87.272 54.589 95c1.177 3.441 4.072 6.392 6.5 9 3 3.221 6.475 7.411 10.911 8.562 5.389 1.399 9.4-2.091 13-5.577 5.317-5.151 10.57-10.397 15.424-15.985 3.777-4.347 9.739-8.51 11.834-14 2.848-7.465-3.164-15.337-11.258-12.396-5.11 1.858-9.258 7.654-13 11.396-4.376 4.376-9.126 8.46-12 14z"/><path style="fill:#ff9751;stroke:none" d="m108 64 1 1-1-1z"/><path style="fill:#ffd4b5;stroke:none" d="M217.333 64.667c-.055.055-.111 1.11.334.666.055-.055.111-1.11-.334-.666z"/><path style="fill:#ffa567;stroke:none" d="m98 65 1 1-1-1z"/><path style="fill:#ffc39b;stroke:none" d="m110 65 1 1-1-1z"/><path style="fill:#ffd1b3;stroke:none" d="M32.333 66.667c-.055.055-.11 1.11.334.666.055-.055.11-1.11-.334-.666z"/><path style="fill:#ff9349;stroke:none" d="m97 66 1 1-1-1z"/><path style="fill:#ffc39b;stroke:none" d="m111 66 1 1-1-1z"/><path style="fill:#ff964e;stroke:none" d="m96 67 1 1-1-1z"/><path style="fill:#ffd6ba;stroke:none" d="m112 67 1 1-1-1z"/><path style="fill:#ff9952;stroke:none" d="m95 68 1 1-1-1z"/><path style="fill:#ff9d5c;stroke:none" d="m94 69 1 1-1-1z"/><path style="fill:#ffd3b4;stroke:none" d="m113 69 1 1-1-1z"/><path style="fill:#ffa366;stroke:none" d="m93 70 1 1-1-1z"/><path style="fill:#ff7f2b;stroke:none" d="M113 70v5c.83-2.03.83-2.97 0-5z"/><path style="fill:#ffa86f;stroke:none" d="m92 71 1 1-1-1z"/><path style="fill:#ffaf77;stroke:none" d="m91 72 1 1-1-1z"/><path style="fill:#ffb481;stroke:none" d="m90 73 1 1-1-1z"/><path style="fill:#ffd5b9;stroke:none" d="M12 74v7c1.06-2.534 1.06-4.466 0-7z"/><path style="fill:#ffbb8c;stroke:none" d="m89 74 1 1-1-1z"/><path style="fill:#ffbe93;stroke:none" d="m88 75 1 1-1-1z"/><path style="fill:#ffb17d;stroke:none" d="m113 75 1 1-1-1z"/><path style="fill:#ffc6a0;stroke:none" d="m87 76 1 1-1-1z"/><path style="fill:#ffcdac;stroke:none" d="m86 77 1 1-1-1z"/><path style="fill:#ff9d58;stroke:none" d="m112 77 1 1-1-1z"/><path style="fill:#ffd1b2;stroke:none" d="m85 78 1 1-1-1z"/><path style="fill:#ffebdd;stroke:none" d="M238 78v7c1.059-2.534 1.059-4.466 0-7z"/><path style="fill:#ffd6ba;stroke:none" d="m84 79 1 1-1-1z"/><path style="fill:#ffcfae;stroke:none" d="m111 79 1 1-1-1z"/><path style="fill:#ffd7bd;stroke:none" d="m83 80 1 1-1-1z"/><path style="fill:#ffc7a1;stroke:none" d="m110 80 1 1-1-1z"/><path style="fill:#ffbe93;stroke:none" d="m109 81 1 1-1-1z"/><path style="fill:#ffcca7;stroke:none" d="m59 82 1 1-1-1z"/><path style="fill:#ff802b;stroke:none" d="M60 82c1.769.779 3.036.912 5 1-1.769-.779-3.036-.912-5-1z"/><path style="fill:#ffbe94;stroke:none" d="m65 82 1 1-1-1z"/><path style="fill:#ffb687;stroke:none" d="m108 82 1 1-1-1z"/><path style="fill:#ffd1b3;stroke:none" d="M219 82v8c1.161-2.77 1.161-5.23 0-8z"/><path style="fill:#ffebdd;stroke:none" d="M11 83v13c1.59-3.791 1.59-9.209 0-13z"/><path style="fill:#ffc8a2;stroke:none" d="m57 83 1 1-1-1z"/><path style="fill:#ffae78;stroke:none" d="m67 83 1 1-1-1z"/><path style="fill:#ffb27d;stroke:none" d="m107 83 1 1-1-1z"/><path style="fill:#ffa76b;stroke:none" d="m56 84 1 1-1-1z"/><path style="fill:#ffae77;stroke:none" d="m106 84 1 1-1-1z"/><path style="fill:#ffd1b2;stroke:none" d="m132 84 1 1-1-1z"/><path style="fill:#ff7e28;stroke:none" d="M133 84c5.217 2.189 12.381 1 18 1h39c-5.216-2.189-12.381-1-18-1h-39z"/><path style="fill:#ffc49c;stroke:none" d="m190 84 1 1-1-1z"/><path style="fill:#ffa060;stroke:none" d="m55 85 1 1-1-1z"/><path style="fill:#ffaa71;stroke:none" d="m105 85 1 1-1-1z"/><path style="fill:#ffc8a5;stroke:none" d="m130 85 1 1-1-1z"/><path style="fill:#af2e42;stroke:none" d="M131.059 86.028c-6.62 3.625-4.774 14.141 1.956 16.319 4.563 1.477 10.248.653 14.985.653h29c5.081 0 11.437.975 15.891-2.009 5.762-3.861 5.111-13.528-1.931-15.557C186.422 84.126 180.686 85 176 85h-29c-4.669 0-11.717-1.286-15.941 1.028z"/><path style="fill:#ffb07b;stroke:none" d="m192 85 1 1-1-1z"/><path style="fill:#ffd0af;stroke:none" d="M238 85v11c1.431-3.41 1.431-7.59 0-11z"/><path style="fill:#ffd6b9;stroke:none" d="M30 86v66c2.189-5.216 1-12.381 1-18v-32c0-5.08.98-11.28-1-16z"/><path style="fill:#ffc59f;stroke:none" d="m54 86 1 1-1-1z"/><path style="fill:#ffa468;stroke:none" d="m104 86 1 1-1-1z"/><path style="fill:#ffa467;stroke:none" d="m129 86 1 1-1-1z"/><path style="fill:#ff9f5d;stroke:none" d="m103 87 1 1-1-1z"/><path style="fill:#ffa365;stroke:none" d="m128 87 1 1-1-1z"/><path style="fill:#ffcead;stroke:none" d="m53 88 1 1-1-1z"/><path style="fill:#ff8f42;stroke:none" d="m76 88 1 1-1-1z"/><path style="fill:#ff964e;stroke:none" d="m102 88 1 1-1-1z"/><path style="fill:#ffc39a;stroke:none" d="m127 88 1 1-1-1z"/><path style="fill:#ff9a57;stroke:none" d="m195 88 1 1-1-1z"/><path style="fill:#ff8c3f;stroke:none" d="M53 89v5c.83-2.03.83-2.97 0-5z"/><path style="fill:#ff934b;stroke:none" d="m75 89 1 1-1-1z"/><path style="fill:#ff8f44;stroke:none" d="m101 89 1 1-1-1z"/><path style="fill:#ffd4b8;stroke:none" d="m196 89 1 1-1-1z"/><path style="fill:#ff8c3f;stroke:none" d="m100 90 1 1-1-1z"/><path style="fill:#ffc29a;stroke:none" d="m126 90 1 1-1-1z"/><path style="fill:#ffede2;stroke:none" d="M219 90v65c2.085-4.969 1-11.65 1-17v-32c0-5.08.981-11.28-1-16z"/><path style="fill:#000;stroke:none" d="M477 90c.357 7.818 3.661 15.12 4 23-4.683-2.017-10.588-7.072-15.985-5.218-8.887 3.054-8.977 18.348-2.79 23.899 7.43 6.667 11.998-4.373 18.551-4.48 1.976-.032 3.724 2.744 5.224 3.799-1.583-12.525.692-31.4-9-41z"/><path style="fill:#ff791e;stroke:none" d="M126 91v5c.83-2.03.83-2.97 0-5z"/><path style="fill:#ffd6bc;stroke:none" d="M197 92v3c.696-1.554.696-1.446 0-3z"/><path style="fill:#ffc299;stroke:none" d="m53 94 1 1-1-1z"/><path style="fill:#ffdcc3;stroke:none" d="M11 96v55c1.875-4.469 1-10.191 1-15v-26c0-4.536.769-9.785-1-14z"/><path style="fill:#ffc49d;stroke:none" d="m54 96 1 1-1-1z"/><path style="fill:#ffb786;stroke:none" d="m126 96 1 1-1-1z"/><path style="fill:#ffc49c;stroke:none" d="M238 96v55c1.875-4.469 1-10.191 1-15v-26c0-4.536.769-9.785-1-14z"/><path style="fill:#ffa366;stroke:none" d="m55 97 1 1-1-1z"/><path style="fill:#ffc59f;stroke:none" d="m196 97 1 1-1-1z"/><path style="fill:#ff934a;stroke:none" d="m56 98 1 1-1-1z"/><path style="fill:#ffad76;stroke:none" d="m127 98 1 1-1-1z"/><path style="fill:#000;stroke:none" d="M279 121c-2.994 4.4 1.001 7.898 5.004 10.084 6.379 3.485 20.009 5.521 25.558-.478 3.185-3.443 1.464-7.353-1.671-10.077-6.021-5.232-15.664-5.937-20.514-12.622-4.798-6.612 7.081-9.424 11.623-8.255 3.09.795 5.919 2.461 9 3.348-4.097-4.658-10.988-5.945-16.996-4.467-3.936.969-7.708 3.951-6.218 8.452 2.071 6.255 11.947 9.456 17.213 12.393 2.852 1.59 6.939 3.678 6.535 7.583-.524 5.068-6.774 5.019-10.534 5.038-8.606.045-17.011-1.15-19-10.999m37-23v2h2c-.545-1.635-.365-1.455-2-2z"/><path style="fill:#ff8f44;stroke:none" d="m57 99 1 1-1-1z"/><path style="fill:#ffd4b7;stroke:none" d="m194 100 1 1-1-1z"/><path style="fill:#ffa468;stroke:none" d="m130 101 1 1-1-1z"/><path style="fill:#ff8c40;stroke:none" d="m192 101 1 1-1-1z"/><path style="fill:#ffac75;stroke:none" d="m132 102 1 1-1-1z"/><path style="fill:#ff9d5c;stroke:none" d="m190 102 1 1-1-1z"/><path style="fill:#ffd3b7;stroke:none" d="m191 102 1 1-1-1z"/><path style="fill:#ffd6ba;stroke:none" d="m88 103 1 1-1-1z"/><path style="fill:#ffece0;stroke:none" d="M134 103c5.217 2.189 12.381 1 18 1h37c-5.216-2.189-12.381-1-18-1h-37z"/><path style="fill:#000;stroke:none" d="M353 132c-6.983-2.504-14.595 1.429-20.697-5.214-5.72-6.227-3.683-21.63 6.692-21.449 4.785.084 7.801 5.488 4.531 9.273-2.841 3.288-7.44 4.178-11.526 4.39 7.047 4.903 19.231-4.85 13.258-12.772-4.004-5.31-11.325-2.394-14.828 1.877-8.002 9.755-1.128 23.736 10.57 25.566 4.152.649 8.01-.759 12-1.671m163 0c-6.566-2.355-13.726 1.27-19.772-4.394-6.316-5.917-4.838-21.944 5.771-22.229 4.323-.117 8.017 4.549 5.378 8.435-2.727 4.016-7.916 4.981-12.377 5.188 7.129 4.655 19.513-4.411 13.856-12.606-3.814-5.525-11.656-2.462-15.053 1.794-7.921 9.928-.979 24.236 11.197 25.623 3.857.439 7.376-.662 11-1.811z"/><path style="fill:#ffd0b1;stroke:none" d="m87 104 1 1-1-1z"/><path style="fill:#000;stroke:none" d="M411 107c7.298-.985 11.013 3.998 14 10-5.441.495-10.657-2.07-15.985.228-7.36 3.175-7.511 12.176.025 15.209 7.036 2.831 14.045.511 20.96-1.437-7.035-2.746-17.239 3.566-23.551-2.653-5.498-5.417 3.968-10.082 8.551-10.21 6.718-.187 10.286 5.078 15 8.863-.94-7.275-3.007-14.821-9.04-19.581-3.221-2.541-7.308-4.052-9.96-.419z"/><path style="fill:#ffcaa7;stroke:none" d="m86 105 1 1-1-1z"/><path style="fill:#ffc7a1;stroke:none" d="m85 106 1 1-1-1z"/><path style="fill:#ffd5ba;stroke:none" d="m64 107 1 1-1-1z"/><path style="fill:#ffbf94;stroke:none" d="m84 107 1 1-1-1z"/><path style="fill:#000;stroke:none" d="M359 110c.632 8.012 2.191 15.467 5 23 2.541-6.526-8.587-25.464 6.995-23.291 2.009.28 4.017.881 6.005 1.291-4.11-6.521-12.044-2.012-18-1m22 0c.022 8.078 1.724 15.611 5 23 1.926-6.343-9.294-25.558 5.998-23.442 2.355.326 4.64 1.095 7.002 1.442-5.436-5.877-11.288-2.141-18-1z"/><path style="fill:#ffd1b2;stroke:none" d="m65 108 1 1-1-1z"/><path style="fill:#ffba8b;stroke:none" d="m83 108 1 1-1-1z"/><path style="fill:#000;stroke:none" d="M319 108c0 8.483-.756 18.197 3 26 2.652-6.334-.333-19.817-3-26z"/><path style="fill:#ffcaa7;stroke:none" d="m66 109 1 1-1-1z"/><path style="fill:#ffb481;stroke:none" d="m82 109 1 1-1-1z"/><path style="fill:#ffc8a1;stroke:none" d="m67 110 1 1-1-1z"/><path style="fill:#ffad76;stroke:none" d="m81 110 1 1-1-1z"/><path style="fill:none;stroke:none" d="M468.004 110.657c-10.872 1.204-10.687 21.45.996 20.11 13.735-1.576 13.786-21.747-.996-20.11z"/><path style="fill:#ffd5b9;stroke:none" d="m68 111 1 1-1-1z"/><path style="fill:#ffc7a0;stroke:none" d="m80 111 1 1-1-1z"/><path style="fill:#ffaa72;stroke:none" d="m70 112 1 1-1-1z"/><path style="fill:#ffa66c;stroke:none" d="m78 112 1 1-1-1z"/><path style="fill:#ffc39b;stroke:none" d="M72 113c1.769.779 3.036.912 5 1-1.769-.779-3.036-.912-5-1z"/><path style="fill:#ffb685;stroke:none" d="m101 136 1 1-1-1z"/><path style="fill:#ff7b24;stroke:none" d="M102 136c1.769.779 3.036.912 5 1-1.769-.779-3.036-.912-5-1z"/><path style="fill:#ffcaa7;stroke:none" d="m107 136 1 1-1-1z"/><path style="fill:#ffa96d;stroke:none" d="m99 137 1 1-1-1z"/><path style="fill:#af2e42;stroke:none" d="M75 163c-3.125-3.09-6.398-6.934-11-7.613-7.302-1.077-11.52 6.16-9.436 12.613 1.136 3.518 3.981 6.39 6.475 9 2.85 2.981 6 6.764 9.961 8.257 10.803 4.07 22.12-13.571 28.17-20.257 4.173-4.613 10.815-9.044 13.088-15 3.161-8.286-3.941-15.468-12.254-12.258-4.946 1.91-8.393 7.6-12.008 11.258-4.476 4.53-9.322 8.785-12.996 14z"/><path style="fill:#ffc8a4;stroke:none" d="m109 137 1 1-1-1z"/><path style="fill:#ff9f5e;stroke:none" d="m110 138 1 1-1-1z"/><path style="fill:#ffa569;stroke:none" d="m111 139 1 1-1-1z"/><path style="fill:#ffc7a1;stroke:none" d="m112 140 1 1-1-1z"/><path style="fill:#ffc8a4;stroke:none" d="m113 142 1 1-1-1z"/><path style="fill:#ff8c3f;stroke:none" d="m93 143 1 1-1-1z"/><path style="fill:#ff812c;stroke:none" d="M113 143v5c.83-2.03.83-2.97 0-5z"/><path style="fill:#ff9247;stroke:none" d="m92 144 1 1-1-1z"/><path style="fill:#ff944d;stroke:none" d="m91 145 1 1-1-1z"/><path style="fill:#ff9a57;stroke:none" d="m90 146 1 1-1-1z"/><path style="fill:#ffa05f;stroke:none" d="m89 147 1 1-1-1z"/><path style="fill:#ffa56a;stroke:none" d="m88 148 1 1-1-1z"/><path style="fill:#ffbd90;stroke:none" d="m113 148 1 1-1-1z"/><path style="fill:#ffaa71;stroke:none" d="m87 149 1 1-1-1z"/><path style="fill:#ffb07a;stroke:none" d="m86 150 1 1-1-1z"/><path style="fill:#ffab73;stroke:none" d="m112 150 1 1-1-1z"/><path style="fill:#ffe7d7;stroke:none" d="M11 151v9c1.256-2.994 1.256-6.006 0-9z"/><path style="fill:#ffb482;stroke:none" d="m85 151 1 1-1-1z"/><path style="fill:#ffd7bc;stroke:none" d="M238 151v13c1.591-3.791 1.591-9.209 0-13z"/><path style="fill:#ffbd90;stroke:none" d="m84 152 1 1-1-1z"/><path style="fill:#ffc49e;stroke:none" d="m83 153 1 1-1-1z"/><path style="fill:#ffe9db;stroke:none" d="M61 154c1.506.683 2.315.826 4 1-1.506-.683-2.315-.826-4-1z"/><path style="fill:#ffcaa6;stroke:none" d="m82 154 1 1-1-1z"/><path style="fill:#ffd6bc;stroke:none" d="m109 154 1 1-1-1z"/><path style="fill:#ffa76d;stroke:none" d="m59 155 1 1-1-1z"/><path style="fill:#ff9047;stroke:none" d="m65 155 1 1-1-1z"/><path style="fill:#ffc9a5;stroke:none" d="m66 155 1 1-1-1z"/><path style="fill:#ffcdac;stroke:none" d="m81 155 1 1-1-1z"/><path style="fill:#ffd4b7;stroke:none" d="m108 155 1 1-1-1z"/><path style="fill:#ffdac1;stroke:none" d="M219 155v9c1.256-2.994 1.256-6.006 0-9z"/><path style="fill:#ffa76b;stroke:none" d="m57 156 1 1-1-1z"/><path style="fill:#ffd2b4;stroke:none" d="m80 156 1 1-1-1z"/><path style="fill:#ffcead;stroke:none" d="m107 156 1 1-1-1z"/><path style="fill:#ffece1;stroke:none" d="M134 156c5.216 2.189 12.381 1 18 1h37c-5.216-2.189-12.381-1-18-1h-37z"/><path style="fill:#ffd7bc;stroke:none" d="m69 157 1 1-1-1z"/><path style="fill:#ffc196;stroke:none" d="m106 157 1 1-1-1z"/><path style="fill:#ffb380;stroke:none" d="m132 157 1 1-1-1z"/><path style="fill:#af2e42;stroke:none" d="M133.015 157.653c-8.079 2.615-8.079 15.079 0 17.694 4.563 1.477 10.248.653 14.985.653h28c4.943 0 11.418 1.038 15.956-1.318 8.193-4.253 5.27-15.388-2.957-17.288C177.717 154.788 163.574 157 152 157c-5.899 0-13.318-1.182-18.985.653z"/><path style="fill:#ffa568;stroke:none" d="m190 157 1 1-1-1z"/><path style="fill:#ff8d3f;stroke:none" d="m55 158 1 1-1-1z"/><path style="fill:#ffb989;stroke:none" d="m105 158 1 1-1-1z"/><path style="fill:#ffaa72;stroke:none" d="m130 158 1 1-1-1z"/><path style="fill:#ff9247;stroke:none" d="m192 158 1 1-1-1z"/><path style="fill:#ffb787;stroke:none" d="m54 159 1 1-1-1z"/><path style="fill:#ffb27f;stroke:none" d="m104 159 1 1-1-1z"/><path style="fill:#ffaf7a;stroke:none" d="m103 160 1 1-1-1z"/><path style="fill:#ffc8a3;stroke:none" d="m53 161 1 1-1-1z"/><path style="fill:#ffac73;stroke:none" d="m102 161 1 1-1-1z"/><path style="fill:#ffb07b;stroke:none" d="m127 161 1 1-1-1z"/><path style="fill:#ff8c3f;stroke:none" d="M53 162v5c.83-2.03.83-2.97 0-5z"/><path style="fill:#ffa76b;stroke:none" d="m101 162 1 1-1-1z"/><path style="fill:#ffc8a4;stroke:none" d="m196 162 1 1-1-1z"/><path style="fill:#ff9f5e;stroke:none" d="m100 163 1 1-1-1z"/><path style="fill:#ffb88a;stroke:none" d="m126 163 1 1-1-1z"/><path style="fill:#ff944d;stroke:none" d="m99 164 1 1-1-1z"/><path style="fill:#ff7a22;stroke:none" d="M126 164v5c.83-2.03.83-2.97 0-5z"/><path style="fill:#ffdcc4;stroke:none" d="M197 164v4c.71-1.759.71-2.241 0-4z"/><path style="fill:#ff9247;stroke:none" d="m98 165 1 1-1-1z"/><path style="fill:#ffe3d0;stroke:none" d="M31 166v6c.951-2.285.951-3.715 0-6z"/><path style="fill:#ff8f41;stroke:none" d="m97 166 1 1-1-1z"/><path style="fill:#ffc8a5;stroke:none" d="m53 167 1 1-1-1z"/><path style="fill:#ffd8bf;stroke:none" d="M12 169v6c.951-2.285.951-3.715 0-6z"/><path style="fill:#ffbf95;stroke:none" d="m54 169 1 1-1-1z"/><path style="fill:#ffb583;stroke:none" d="m126 169 1 1-1-1z"/><path style="fill:#ff9953;stroke:none" d="m55 170 1 1-1-1z"/><path style="fill:#ffc39a;stroke:none" d="m196 170 1 1-1-1z"/><path style="fill:#ff8c3f;stroke:none" d="m56 171 1 1-1-1z"/><path style="fill:#ffa96f;stroke:none" d="m127 171 1 1-1-1z"/><path style="fill:#ffcfaf;stroke:none" d="m194 173 1 1-1-1z"/><path style="fill:#ffdbc3;stroke:none" d="M218 173v4c.71-1.759.71-2.241 0-4z"/><path style="fill:#000;stroke:none" d="M298 203c-5.657-2.374-13.168.995-17.243-5.109-2.77-4.149-.369-9.482 2.471-12.887 6.246-7.491 14.395-10.236 23.772-8.004-7.891-8.849-25.13 3.043-28.146 12-2.188 6.499.826 14.104 8.147 14.89 3.685.397 7.364-.431 10.999-.89z"/><path style="fill:#ffd8bf;stroke:none" d="m90 174 1 1-1-1z"/><path style="fill:#ff9f5e;stroke:none" d="m130 174 1 1-1-1z"/><path style="fill:#ffd3b4;stroke:none" d="m89 175 1 1-1-1z"/><path style="fill:#ffa66a;stroke:none" d="m132 175 1 1-1-1z"/><path style="fill:#ff9752;stroke:none" d="m190 175 1 1-1-1z"/><path style="fill:#ffcfae;stroke:none" d="m191 175 1 1-1-1z"/><path style="fill:#000;stroke:none" d="M352 178c7.677-1.429 12.679 3.706 14 11-5.284-1.208-10.659-3.122-15.957-.772-5.872 2.606-7.69 9.894-1.934 13.763 6.99 4.698 15.543 1.689 22.891.009-7.109-2.955-17.549 3.78-23.508-3.394-4.328-5.211 4.334-9.263 8.508-9.496 6.487-.363 10.375 4.146 14 8.89 2.472-6.336-2.195-15.496-7.093-19.606-3.443-2.888-8.037-4.439-10.907-.394m53 0c7.676-1.068 13.135 3.23 14 11-4.934-1.128-10.009-3.036-14.996-.991-6.047 2.481-8.686 9.498-2.779 13.843 6.563 4.829 15.74 2.126 22.775.148-6.995-2.908-16.311 3.329-22.677-2.653-5.029-4.724 2.175-9.592 6.677-10.154 6.961-.87 11.693 3.137 15 8.807 3.617-8.701-8.74-29.339-18-20z"/><path style="fill:#fca;stroke:none" d="m88 176 1 1-1-1z"/><path style="fill:#ffebde;stroke:none" d="M134 176c5.216 2.189 12.381 1 18 1h37c-5.216-2.189-12.381-1-18-1h-37z"/><path style="fill:#ffc49d;stroke:none" d="m87 177 1 1-1-1z"/><path style="fill:#000;stroke:none" d="M313 177c-1.249 7.57.15 24.966 10.997 24.758 4.484-.087 7.866-4.357 12.003-5.758.747 3.21 1.32 5.988 4 8-.706-4.1-2.374-7.911-3.192-12-.804-4.018-.648-8.078-1.808-12-2.607 6.213-.067 12.525-6.185 17.566-4.117 3.391-8.335 1.417-11.112-2.585-3.691-5.321-3.828-11.898-2.703-17.981h-2z"/><path style="fill:#ffd8bf;stroke:none" d="m62 178 1 1-1-1z"/><path style="fill:#ffc299;stroke:none" d="m86 178 1 1-1-1z"/><path style="fill:#000;stroke:none" d="M376 181c.001 6.984-.189 18.443 6 23-1.37-6.622-9.249-24.19 4-23.757 2.676.088 5.403 1.163 8 1.757-5.382-6.098-11.297-2.829-18-1z"/><path style="fill:#ffe5d3;stroke:none" d="M32.333 179.667c-.055.055-.11 1.111.334.666.055-.055.11-1.111-.334-.666z"/><path style="fill:#ffd0b1;stroke:none" d="m63 179 1 1-1-1z"/><path style="fill:#ffbc8f;stroke:none" d="m85 179 1 1-1-1z"/><path style="fill:#ffcba9;stroke:none" d="m64 180 1 1-1-1z"/><path style="fill:#ffb482;stroke:none" d="m84 180 1 1-1-1z"/><path style="fill:#ffd3b4;stroke:none" d="M13 181v3c.696-1.554.696-1.446 0-3z"/><path style="fill:#ffc59d;stroke:none" d="m65 181 1 1-1-1z"/><path style="fill:#ffad77;stroke:none" d="m83 181 1 1-1-1z"/><path style="fill:#ffe8d8;stroke:none" d="M217.333 181.667c-.055.055-.111 1.111.334.666.055-.055.111-1.111-.334-.666z"/><path style="fill:#ffbf95;stroke:none" d="m66 182 1 1-1-1z"/><path style="fill:#ffa66b;stroke:none" d="m82 182 1 1-1-1z"/><path style="fill:#ffbd91;stroke:none" d="m67 183 1 1-1-1z"/><path style="fill:#ffa56a;stroke:none" d="m81 183 1 1-1-1z"/><path style="fill:#ffcdac;stroke:none" d="m68 184 1 1-1-1z"/><path style="fill:#ffbd90;stroke:none" d="m80 184 1 1-1-1z"/><path style="fill:#ffd7bb;stroke:none" d="M236.333 184.667c-.055.055-.111 1.111.334.666.055-.055.111-1.111-.334-.666z"/><path style="fill:#ffe1cf;stroke:none" d="M33.333 185.667c-.055.055-.11 1.111.334.666.055-.055.11-1.111-.334-.666z"/><path style="fill:#ffa66c;stroke:none" d="m70 185 1 1-1-1z"/><path style="fill:#ff9954;stroke:none" d="m78 185 1 1-1-1z"/><path style="fill:#ffbe91;stroke:none" d="M72 186c1.769.779 3.036.912 5 1-1.769-.779-3.036-.912-5-1z"/><path style="fill:#000;stroke:none" d="M291 188c3.887 2.944 9.284 2 14 2-.063 5.308-1.004 8.592-6 11 2.052.874 3.747.953 6 1 .185 3.353.233 6.071 4 6-2.9-5.215.493-14.064-3.028-18.243-2.148-2.55-11.569-1.327-14.972-1.757z"/><path style="fill:#ffdac0;stroke:none" d="M34.333 190.667c-.055.055-.11 1.111.334.666.055-.055.11-1.111-.334-.666z"/><path style="fill:#ffddc4;stroke:none" d="M235.333 190.667c-.055.055-.111 1.111.334.666.055-.055.111-1.111-.334-.666z"/><path style="fill:#ffddc8;stroke:none" d="M15.333 193.667c-.055.055-.11 1.111.334.666.055-.055.11-1.111-.334-.666z"/><path style="fill:#ffe6d5;stroke:none" d="M16.333 197.667c-.055.055-.11 1.111.334.666.055-.055.11-1.111-.334-.666z"/><path style="fill:#ffd4b6;stroke:none" d="M191.667 215.333c-.445.445.611.389.666.334.445-.445-.611-.389-.666-.334z"/><path style="fill:#ffdcc4;stroke:none" d="M61.667 216.333c-.445.445.61.389.666.334.445-.445-.61-.389-.666-.334z"/><path style="fill:#ffe0cc;stroke:none" d="M186.667 216.333c-.445.445.611.389.666.334.445-.445-.611-.389-.666-.334z"/><path style="fill:#ffd6ba;stroke:none" d="M66.667 217.333c-.445.445.61.389.666.334.445-.445-.61-.389-.666-.334z"/><path style="fill:#ffe6d5;stroke:none" d="M75 218c1.769.779 3.036.912 5 1-1.769-.779-3.036-.912-5-1z"/><path style="fill:#ffdec8;stroke:none" d="M169 218c2.613 1.098 5.164.993 8 1-2.613-1.098-5.165-.993-8-1z"/><path style="fill:#ffcdab;stroke:none" d="M86 219c2.613 1.098 5.165.993 8 1-2.613-1.098-5.165-.993-8-1z"/><path style="fill:#ffe1cd;stroke:none" d="M94 219c5.707 2.395 13.846 1 20 1h42c-5.707-2.395-13.846-1-20-1H94z"/><path style="fill:#ffe8d8;stroke:none" d="M198.667 233.333c-.445.445.611.389.666.334.445-.445-.611-.389-.666-.334z"/><path style="fill:#ffd4b6;stroke:none" d="M54.667 234.333c-.445.445.61.389.666.334.445-.445-.61-.389-.666-.334z"/><path style="fill:#ffdcc4;stroke:none" d="M58.667 235.333c-.445.445.61.389.666.334.445-.445-.61-.389-.666-.334z"/><path style="fill:#ffe5d3;stroke:none" d="M190.667 235.333c-.445.445.611.389.666.334.445-.445-.611-.389-.666-.334z"/><path style="fill:#ffe4d1;stroke:none" d="M63.667 236.333c-.445.445.61.389.666.334.445-.445-.61-.389-.666-.334z"/><path style="fill:#fff1e6;stroke:none" d="M175 237c1.769.779 3.036.912 5 1-1.769-.779-3.036-.912-5-1z"/><path style="fill:#ffdbc2;stroke:none" d="M83 238c3.959 1.661 8.737 1 13 1-3.959-1.661-8.737-1-13-1z"/><path style="fill:#ffcfae;stroke:none" d="M96 238c5.462 2.292 13.113 1 19 1h40c-5.462-2.292-13.113-1-19-1H96z"/><path style="fill:#ffe5d3;stroke:none" d="M155 238c2.89 1.213 5.874.998 9 1-2.89-1.213-5.874-.998-9-1z"/></svg>