<svg xmlns="http://www.w3.org/2000/svg" width="600" height="250"><path style="fill:none;stroke:none" d="M0 0v250h600V0H0z"/><path style="fill:#ffbe94;stroke:none" d="M191 12c1.506.683 2.315.826 4 1-1.506-.683-2.315-.826-4-1z"/><path style="fill:#ffaf79;stroke:none" d="m189 13 1 1-1-1z"/><path style="fill:#af2e42;stroke:none" d="M190.109 13.743c-4.218 1.781-4.955 7.496-3.081 11.257 1.945 3.904 5.926 6.805 8.801 10 4.162 4.624 7.755 9.681 10.967 15 21.28 35.237 18.384 81.17-8.081 113-26.22 31.535-70.509 46.325-109.715 31.575-14.03-5.279-26.288-13.112-37-23.571-3.832-3.742-9.14-8.265-14.772-4.825-5.723 3.496-2.428 11.02.961 14.782 8.169 9.066 19.062 16.597 29.811 22.258 30.205 15.908 68.773 17.553 100 3.475C216.516 184.823 243.133 134.3 235.715 82c-2.903-20.46-12.537-40.322-25.849-56-4.333-5.102-11.739-15.643-19.757-12.257z"/><path style="fill:#ffcdac;stroke:none" d="m197 13 1 1-1-1z"/><path style="fill:#ffa466;stroke:none" d="m198 14 1 1-1-1z"/><path style="fill:#ff944d;stroke:none" d="m199 15 1 1-1-1z"/><path style="fill:#ff9e5c;stroke:none" d="m186 16 1 1-1-1z"/><path style="fill:#ff8d3f;stroke:none" d="m200 16 1 1-1-1z"/><path style="fill:#ff8a3d;stroke:none" d="M185 18v5c.83-2.03.83-2.97 0-5z"/><path style="fill:#ff8f42;stroke:none" d="m206 22 1 1-1-1z"/><path style="fill:#ffdec9;stroke:none" d="M112 23c1.506.683 2.315.826 4 1-1.506-.683-2.315-.826-4-1z"/><path style="fill:#ffbc8f;stroke:none" d="M116 23.428c-13.023 1.865-24.94 5.59-36 12.928C71.304 42.125 63.91 49.377 58.029 58 33.139 94.486 42.734 147.411 80 171.9c17.151 11.271 37.903 14.86 58 11.969 10.87-1.564 21.648-5.573 31-11.336 7.664-4.722 14.666-11.388 20.101-18.533C224.3 107.727 200.387 36.435 142 24.808c-8.363-1.666-17.52-2.594-26-1.38z"/><path style="fill:#ffe6d4;stroke:none" d="M132 23c1.769.779 3.036.912 5 1-1.769-.779-3.036-.912-5-1z"/><path style="fill:#ff9e5c;stroke:none" d="m207 23 1 1-1-1z"/><path style="fill:#ffd9c0;stroke:none" d="M108.667 24.333c-.445.445.611.39.666.334.445-.445-.611-.39-.666-.334z"/><path style="fill:#ffe6d5;stroke:none" d="M140.667 24.333c-.445.445.611.39.666.334.445-.445-.611-.39-.666-.334z"/><path style="fill:#ffa66c;stroke:none" d="m208 24 1 1-1-1z"/><path style="fill:#ffd7be;stroke:none" d="m186 25 1 1-1-1z"/><path style="fill:#ffb07b;stroke:none" d="m209 25 1 1-1-1z"/><path style="fill:#ffc49c;stroke:none" d="m187 26 1 1-1-1z"/><path style="fill:#ffc9a5;stroke:none" d="m210 26 1 1-1-1z"/><path style="fill:#ffc8a1;stroke:none" d="m188 27 1 1-1-1z"/><path style="fill:#ffcdab;stroke:none" d="m189 28 1 1-1-1z"/><path style="fill:#000;stroke:none" d="M256 28v193h2V28h-2z"/><path style="fill:#ffcfae;stroke:none" d="m190 29 1 1-1-1z"/><path style="fill:#ff9651;stroke:none" d="m212 29 1 1-1-1z"/><path style="fill:#ffd1b4;stroke:none" d="m191 30 1 1-1-1z"/><path style="fill:#ffb480;stroke:none" d="m213 30 1 1-1-1z"/><path style="fill:#ffd5b9;stroke:none" d="m192 31 1 1-1-1z"/><path style="fill:#ffcfae;stroke:none" d="m214 31 1 1-1-1z"/><path style="fill:#ffcfaf;stroke:none" d="m193 32 1 1-1-1z"/><path style="fill:#ffbf93;stroke:none" d="m194 33 1 1-1-1z"/><path style="fill:#ff9651;stroke:none" d="m215 33 1 1-1-1z"/><path style="fill:#ffb27f;stroke:none" d="m195 34 1 1-1-1z"/><path style="fill:#ffc29b;stroke:none" d="m216 34 1 1-1-1z"/><path style="fill:#ffa162;stroke:none" d="m196 35 1 1-1-1z"/><path style="fill:#ff964f;stroke:none" d="m197 36 1 1-1-1z"/><path style="fill:#ff9046;stroke:none" d="m217 36 1 1-1-1z"/><path style="fill:#ffbc8e;stroke:none" d="m218 37 1 1-1-1z"/><path style="fill:#ffe1cd;stroke:none" d="M118 39c3.959 1.661 8.737 1 13 1-3.959-1.661-8.737-1-13-1z"/><path style="fill:#ffcdaa;stroke:none" d="m199 39 1 1-1-1z"/><path style="fill:#ff8c40;stroke:none" d="m219 39 1 1-1-1z"/><path style="fill:#ffe0cc;stroke:none" d="M112.667 40.333c-.445.445.611.39.666.334.445-.445-.611-.39-.666-.334z"/><path style="fill:#f7f7f7;stroke:none" d="M158 48c-17.162-7.136-35.632-11.757-54-5.3-3.998 1.404-14.309 4.417-14.978 9.404-.613 4.571 5.79 11.735 7.666 15.896 4.408 9.778 2.895 22.46 9.706 30.985 2.955 3.699 8.306 8.03 13.458 6.682 5.318-1.392 1.758-9.83 2.542-13.667 1.465-7.168 7.192-13.163 12.606-17.674C145.289 65.75 155.818 62.772 158 48z"/><path style="fill:#ffb07a;stroke:none" d="m200 40 1 1-1-1z"/><path style="fill:#ffc9a6;stroke:none" d="m220 40 1 1-1-1z"/><path style="fill:#ffdbc2;stroke:none" d="M140.667 41.333c-.445.445.611.39.666.334.445-.445-.611-.39-.666-.334z"/><path style="fill:#ff964f;stroke:none" d="m201 41 1 1-1-1z"/><path style="fill:#ffb07a;stroke:none" d="m221 42 1 1-1-1z"/><path style="fill:#ffceac;stroke:none" d="m202 43 1 1-1-1z"/><path style="fill:#ffa263;stroke:none" d="m203 44 1 1-1-1z"/><path style="fill:#ff944e;stroke:none" d="m222 44 1 1-1-1z"/><path style="fill:#ffd0b1;stroke:none" d="m223 45 1 1-1-1z"/><path style="fill:#ffd5b8;stroke:none" d="m204 46 1 1-1-1z"/><path style="fill:#ffa466;stroke:none" d="m205 47 1 1-1-1z"/><path style="fill:#ffcfaf;stroke:none" d="m224 47 1 1-1-1z"/><path style="fill:#ffc299;stroke:none" d="m206 49 1 1-1-1z"/><path style="fill:#ffcead;stroke:none" d="m225 49 1 1-1-1z"/><path style="fill:#ffd7be;stroke:none" d="m207 51 1 1-1-1z"/><path style="fill:#ffcfad;stroke:none" d="m226 51 1 1-1-1z"/><path style="fill:#ff9f5e;stroke:none" d="m208 52 1 1-1-1z"/><path style="fill:#ffd8be;stroke:none" d="m227 53 1 1-1-1z"/><path style="fill:#ffac75;stroke:none" d="m209 54 1 1-1-1z"/><path style="fill:#ff9a57;stroke:none" d="m227 54 1 1-1-1z"/><path style="fill:#ffaf7a;stroke:none" d="m210 56 1 1-1-1z"/><path style="fill:#ffb887;stroke:none" d="m228 56 1 1-1-1z"/><path style="fill:#ffb17d;stroke:none" d="m211 58 1 1-1-1z"/><path style="fill:#ffd3b6;stroke:none" d="m229 58 1 1-1-1z"/><path style="fill:#000;stroke:none" d="M525 58c.161 7.56 3.387 14.49 4 22-5.355-1.258-10.124-6.156-15.96-4.563-9.908 2.706-10.223 21.092-.947 24.817 6.53 2.622 12.975-4.006 17.907-7.254 1.037 2.513 1.683 3.617 4 5-2.194-11.817.54-31.278-9-40z"/><path style="fill:#ff944c;stroke:none" d="m229 59 1 1-1-1z"/><path style="fill:#000;stroke:none" d="M295 59c.555 6.794 3.119 13.218 3.83 20 .748 7.13.149 15.163 2.17 22 2.616-6.234-2.302-14.112 1.027-19.855 2.969-5.122 9.445-3.25 12.231.913C317.547 86.97 316 95.35 316 101h2c1.012-8.008 1.668-25.185-10.004-25.848-2.817-.16-5.406.904-7.996 1.848-.051-6.184-.786-13.218-5-18z"/><path style="fill:#f7f7f7;stroke:none" d="M172 60c-3.183 5.811-5.783 11.196-11.004 15.535-6.057 5.035-14.744 8.184-19.562 14.505-3.95 5.182-.56 11.13-1.967 16.96-3.311 13.713-18.709 18.188-30.467 13.535C96.65 115.648 89.058 104.482 85.756 92c-1.3-4.918-1.242-10.177-2.86-15-1.059-3.15-4.78-14.119-9.583-11.249-2.656 1.588-4.428 5.616-5.824 8.249C62.588 83.248 61 92.695 61 103c0 25.3 12.865 49.754 37 60.121 9.341 4.012 18.986 4.879 29 4.879.002-20.19 11.922-33.987 32-37.536 7.9-1.397 17.262.642 23.956-4.858 6.127-5.034 6.041-13.314 6.044-20.606.006-16.03-3.81-34.262-17-45z"/><path style="fill:#ffa76a;stroke:none" d="m212 60 1 1-1-1z"/><path style="fill:#ffbc8e;stroke:none" d="m230 61 1 1-1-1z"/><path style="fill:#ffe8d7;stroke:none" d="M74.667 63.333c-.445.445.61.39.666.334.445-.445-.61-.39-.666-.334z"/><path style="fill:#ffc5a0;stroke:none" d="m213 63 1 1-1-1z"/><path style="fill:#ffbd90;stroke:none" d="m231 64 1 1-1-1z"/><path style="fill:#000;stroke:none" d="M373 64c.385 4.891.615 9.107 0 14h-6v2h7c0 7.103.11 13.955 1 21h2c-.17-8.235-4.885-20.613 7-21v-2h-8c0-4.73.347-9.442-1-14h-2z"/><path style="fill:#ffa569;stroke:none" d="m214 65 1 1-1-1z"/><path style="fill:#000;stroke:none" d="M439 65c.899 2.124.876 2.1 3 3-1.103-1.457-1.543-1.897-3-3m-116 1c1.223 1.195 1.42 1.316 3 2-1.223-1.195-1.42-1.316-3-2z"/><path style="fill:#ffba8b;stroke:none" d="m232 67 1 1-1-1z"/><path style="fill:#ffb17d;stroke:none" d="m215 68 1 1-1-1z"/><path style="fill:#ffd0b1;stroke:none" d="m233 70 1 1-1-1z"/><path style="fill:#ffb584;stroke:none" d="m216 71 1 1-1-1z"/><path style="fill:#ffa86e;stroke:none" d="m233 71 1 1-1-1z"/><path style="fill:#000;stroke:none" d="M564 99c-6.912-2.126-14.33 1.283-20.581-4.638-6.416-6.078-3.305-21.257 6.566-21.74 5.008-.244 7.772 5.465 4.679 9.245-2.953 3.608-7.35 4.04-11.664 4.133v2c4.836-.043 11.052-.505 13.821-5.213 4.063-6.907-2.766-13.716-9.82-11.044-9.543 3.614-11.276 17.089-4.773 24.149 5.623 6.106 14.618 6.127 21.772 3.108M458 75c7.324-1.183 12.521 2.669 14 10-4.269-.337-8.712-1.547-13-.772-7.693 1.392-11.436 10.145-3.956 14.683 6.581 3.992 15.43 1.978 21.956-.911-6.677-2.395-15.47 3.056-21.847-1.742-5.837-4.39 1.204-9.632 5.847-10.533 6.844-1.329 12.083 3.668 15 9.275 3.69-8.875-8.372-29.793-18-20z"/><path style="fill:#ffa163;stroke:none" d="m217 74 1 1-1-1z"/><path style="fill:#ffcca9;stroke:none" d="m234 74 1 1-1-1z"/><path style="fill:#ffd1b2;stroke:none" d="M99.333 75.667c-.055.055-.11 1.11.334.666.055-.055.11-1.11-.334-.666z"/><path style="fill:#ffe9db;stroke:none" d="M217.333 75.667c-.055.055-.111 1.11.334.666.055-.055.111-1.11-.334-.666z"/><path style="fill:#ffa366;stroke:none" d="m234 75 1 1-1-1z"/><path style="fill:#000;stroke:none" d="M335 95c4.706 5.955 12.712 7.109 19.999 5.772 3.911-.718 8-4.182 6.239-8.558-3.539-8.8-20.158-1.154-22.486-10.279-.888-3.48 3.445-5.482 6.249-5.612 3.991-.186 6.149 2.158 6.999 5.677 2.313-2.239.812-5.006-2.109-6.258-3.865-1.657-11.614-1.298-13.244 3.363-1.207 3.455 1.456 6.35 4.397 7.667 4.976 2.228 12.585.442 16.594 4.66 2.359 2.484 1.19 5.553-1.748 6.826-3.219 1.395-8.53 1.098-11.89.349-3.143-.701-5.986-2.512-9-3.607m83-18c.005 8.275 1.112 16.592 5 24 2.655-7.485-8.679-18.582 2.019-23.393 1.204-.54 2.698-.485 3.979-.418 2.337.122 4.665.627 7.002.811-5.743-5.381-11.376-.99-18-1m24-2c0 8.731-.103 17.714 3 26 2.348-5.598-.188-12.199-.841-17.996-.347-3.082-.128-5.59-2.159-8.004m-116 1c.001 7.617-.558 18.603 4 25 2.007-7.945-1.977-16.829-2-25h-2m73 1.533c-16.775 3.65-13.031 26.959 4 23.073 14.997-3.422 11.219-26.385-4-23.073z"/><path style="fill:#ffa466;stroke:none" d="m218 78 1 1-1-1z"/><path style="fill:#ffcaa7;stroke:none" d="M235 78v3c.696-1.554.696-1.446 0-3z"/><path style="fill:none;stroke:none" d="M513.044 79.028c-10.114 5.339-4.407 24.308 7.952 17.554 4.019-2.197 7.85-6.55 6.671-11.489-1.288-5.387-9.903-8.556-14.623-6.065z"/><path style="fill:#ffd7bb;stroke:none" d="M47.333 79.667c-.055.055-.11 1.11.334.666.055-.055.11-1.11-.334-.666z"/><path style="fill:#ffd6bb;stroke:none" d="M100 79v3c.696-1.554.696-1.446 0-3z"/><path style="fill:#ffd7bb;stroke:none" d="M202.333 79.667c-.055.055-.111 1.11.334.666.055-.055.111-1.11-.334-.666z"/><path style="fill:#ffe5d3;stroke:none" d="M218.333 79.667c-.055.055-.111 1.11.334.666.055-.055.111-1.11-.334-.666z"/><path style="fill:none;stroke:none" d="M399 79.512c-13.748 1.877-11.957 21.443 2 19.26 13.556-2.121 11.994-21.172-2-19.26z"/><path style="fill:#ffede1;stroke:none" d="M84 82v4c.71-1.76.71-2.24 0-4z"/><path style="fill:#ffe7d5;stroke:none" d="M63.333 83.667c-.055.055-.11 1.11.334.666.055-.055.11-1.11-.334-.666m123 0c-.055.055-.111 1.11.334.666.055-.055.111-1.11-.334-.666z"/><path style="fill:#ffbf95;stroke:none" d="M219.333 83.667c-.055.055-.111 1.11.334.666.055-.055.111-1.11-.334-.666z"/><path style="fill:#ffcfaf;stroke:none" d="M236 84v3c.696-1.554.696-1.446 0-3z"/><path style="fill:#ffe4d2;stroke:none" d="M45 86v3c.696-1.554.696-1.446 0-3m159 0v3c.696-1.554.696-1.446 0-3z"/><path style="fill:#ffa05f;stroke:none" d="M236.333 87.667c-.055.055-.111 1.11.334.666.055-.055.111-1.11-.334-.666z"/><path style="fill:#ff9247;stroke:none" d="M220.333 88.667c-.055.055-.111 1.11.334.666.055-.055.111-1.11-.334-.666z"/><path style="fill:#ffd6bb;stroke:none" d="M85 89v3c.696-1.554.696-1.446 0-3z"/><path style="fill:#ffceac;stroke:none" d="M122 90v9c1.256-2.994 1.256-6.006 0-9z"/><path style="fill:#ffb584;stroke:none" d="M220.333 90.667c-.055.055-.111 1.11.334.666.055-.055.111-1.11-.334-.666z"/><path style="fill:#ffe3d0;stroke:none" d="M237 91v8c1.161-2.77 1.161-5.23 0-8z"/><path style="fill:#ffe1cf;stroke:none" d="M220 92v5c.83-2.03.83-2.97 0-5z"/><path style="fill:#ffeadd;stroke:none" d="M60 96v14c1.667-3.972 1.667-10.028 0-14m129 0v14c1.667-3.972 1.667-10.028 0-14z"/><path style="fill:#ffd0af;stroke:none" d="M139 98v4c.71-1.76.71-2.24 0-4z"/><path style="fill:#ffd4b7;stroke:none" d="M237 99v9c1.256-2.994 1.256-6.006 0-9z"/><path style="fill:#ffd5b8;stroke:none" d="M123.333 102.667c-.055.055-.111 1.111.334.666.055-.055.111-1.111-.334-.666z"/><path style="fill:#ffd4b8;stroke:none" d="M139 105v3c.696-1.554.696-1.446 0-3z"/><path style="fill:#ffddc7;stroke:none" d="M220 105v3c.696-1.554.696-1.446 0-3z"/><path style="fill:#ffbc8f;stroke:none" d="M220 108v3c.696-1.554.696-1.446 0-3z"/><path style="fill:#ffe3d0;stroke:none" d="M44 111v4c.71-1.76.71-2.24 0-4m161 0v4c.71-1.759.71-2.241 0-4z"/><path style="fill:#ff8d40;stroke:none" d="M220 111v3c.696-1.554.696-1.446 0-3z"/><path style="fill:#ffa163;stroke:none" d="M236.333 112.667c-.055.055-.111 1.111.334.666.055-.055.111-1.111-.334-.666z"/><path style="fill:#ffe5d3;stroke:none" d="M61 114v3c.696-1.554.696-1.446 0-3m127 0v3c.696-1.554.696-1.446 0-3z"/><path style="fill:#ffc197;stroke:none" d="M236 114v3c.696-1.554.696-1.446 0-3z"/><path style="fill:#ffd0b0;stroke:none" d="M219 115v3c.696-1.554.696-1.446 0-3z"/><path style="fill:#ff7f2a;stroke:none" d="M219.333 118.667c-.055.055-.111 1.111.334.666.055-.055.111-1.111-.334-.666z"/><path style="fill:#ffe4d3;stroke:none" d="M45.333 119.667c-.055.055-.11 1.111.334.666.055-.055.11-1.111-.334-.666m159 0c-.055.055-.111 1.111.334.666.055-.055.111-1.111-.334-.666z"/><path style="fill:#ffa060;stroke:none" d="M235.333 119.667c-.055.055-.111 1.111.334.666.055-.055.111-1.111-.334-.666z"/><path style="fill:#ffb887;stroke:none" d="M218.333 121.667c-.055.055-.111 1.111.334.666.055-.055.111-1.111-.334-.666z"/><path style="fill:#ffd2b4;stroke:none" d="M235.333 121.667c-.055.055-.111 1.111.334.666.055-.055.111-1.111-.334-.666z"/><path style="fill:#ffdcc6;stroke:none" d="M115 122c2.89 1.213 5.874.998 9 1-2.89-1.213-5.874-.998-9-1z"/><path style="fill:#ffd3b4;stroke:none" d="M63.333 123.667c-.055.055-.11 1.111.334.666.055-.055.11-1.111-.334-.666z"/><path style="fill:#ffbe91;stroke:none" d="M217.333 125.667c-.055.055-.111 1.111.334.666.055-.055.111-1.111-.334-.666z"/><path style="fill:#ffbe93;stroke:none" d="M234.333 125.667c-.055.055-.111 1.111.334.666.055-.055.111-1.111-.334-.666z"/><path style="fill:#ffe7d6;stroke:none" d="M47.333 127.667c-.055.055-.11 1.111.334.666.055-.055.11-1.111-.334-.666m155 0c-.055.055-.111 1.111.334.666.055-.055.111-1.111-.334-.666z"/><path style="fill:#ffd3b6;stroke:none" d="M171 129c1.506.683 2.315.826 4 1-1.506-.683-2.315-.826-4-1z"/><path style="fill:#ffcaa6;stroke:none" d="m216 129 1 1-1-1z"/><path style="fill:#ffb887;stroke:none" d="M233.333 129.667c-.055.055-.111 1.111.334.666.055-.055.111-1.111-.334-.666z"/><path style="fill:#ffd3b6;stroke:none" d="M158 130c1.506.683 2.315.826 4 1-1.506-.683-2.315-.826-4-1z"/><path style="fill:#ff9a57;stroke:none" d="m216 130 1 1-1-1z"/><path style="fill:#ffd6ba;stroke:none" d="M154.667 131.333c-.445.445.611.389.666.334.445-.445-.611-.389-.666-.334z"/><path style="fill:#ffd8bd;stroke:none" d="M150.667 132.333c-.445.445.611.389.666.334.445-.445-.611-.389-.666-.334z"/><path style="fill:#ffd2b4;stroke:none" d="m215 132 1 1-1-1z"/><path style="fill:#ffa060;stroke:none" d="m215 133 1 1-1-1z"/><path style="fill:#ffa468;stroke:none" d="m232 133 1 1-1-1z"/><path style="fill:#ffc6a0;stroke:none" d="m214 135 1 1-1-1z"/><path style="fill:#000;stroke:none" d="M411 135v13l-7 1c2.603 1.561 4.978 1.862 8 2-1.393 5.851-2.307 16.961 3 21-.655-8.305-4.844-21.614 7-22-2.585-1.768-4.884-1.928-8-2l-1-13h-2z"/><path style="fill:#ff9751;stroke:none" d="m231 136 1 1-1-1z"/><path style="fill:#000;stroke:none" d="M393 136c.98 1.783.908 1.594 3 2-1.223-1.195-1.42-1.316-3-2z"/><path style="fill:#ffc8a4;stroke:none" d="m231 137 1 1-1-1z"/><path style="fill:#ffb481;stroke:none" d="m213 138 1 1-1-1z"/><path style="fill:#ff9751;stroke:none" d="m230 139 1 1-1-1z"/><path style="fill:#ffc8a4;stroke:none" d="m212 140 1 1-1-1z"/><path style="fill:#ffd0b1;stroke:none" d="m230 140 1 1-1-1z"/><path style="fill:#000;stroke:none" d="M298 140c1.949 10.498 0 21.357 0 32h2c0-5.4-.258-10.718 1-16 5.475 4.283 7.909 12.125 15.001 14.347 7.442 2.332 14.26-2.552 14.409-10.347.123-6.447-2.986-12.76-6.41-18-2.212 6.379 4.804 11.593 4.601 18-.249 7.858-8.74 10.599-14.6 6.486-5.331-3.741-8.655-9.529-10.936-15.486-1.422-3.714-1.907-8.458-5.065-11z"/><path style="fill:#ffcead;stroke:none" d="m211 142 1 1-1-1z"/><path style="fill:#ffad76;stroke:none" d="m229 142 1 1-1-1z"/><path style="fill:#ffd6bc;stroke:none" d="m210 144 1 1-1-1z"/><path style="fill:#ff8f46;stroke:none" d="m210 145 1 1-1-1z"/><path style="fill:#ffc39b;stroke:none" d="m228 145 1 1-1-1z"/><path style="fill:#ffe0cb;stroke:none" d="M162 146c2.613 1.098 5.165.993 8 1-2.613-1.098-5.165-.993-8-1z"/><path style="fill:#fff;stroke:none" d="M144 165c11.342-1.7 23.451-9.729 30-19-9.208.727-23.94.175-28.566 10.004-1.323 2.81-1.371 5.96-1.434 8.996z"/><path style="fill:#000;stroke:none" d="M389 171c-6.728-2.823-15.333.664-19.907-7.044-5.6-9.438 6.716-22.237 14.907-12.956 1.627-7.482-10.721-4.685-13.891-1.772-5.916 5.437-6.404 15.886.996 20.355 5.445 3.287 11.964 2.518 17.895 1.417m7-25c0 8.761.622 17.54 3 26 3.192-7.607-.995-17.908-1-26h-2z"/><path style="fill:#ffe7d6;stroke:none" d="M158.667 147.333c-.445.445.611.389.666.334.445-.445-.611-.389-.666-.334z"/><path style="fill:#ffb887;stroke:none" d="m227 147 1 1-1-1z"/><path style="fill:#000;stroke:none" d="M349 147.569c-4.896.401-10.203 3.022-12.543 7.471-4.366 8.3 2.678 17.24 11.543 16.815 5.289-.254 10.756-3.66 12.343-8.859 2.184-7.152-3.499-16.068-11.343-15.427m90 0c-4.896.401-10.203 3.022-12.543 7.471-4.411 8.385 2.59 17.244 11.543 16.815 5.289-.254 10.756-3.66 12.343-8.859 2.184-7.152-3.499-16.068-11.343-15.427z"/><path style="fill:#ffcba8;stroke:none" d="m208 148 1 1-1-1z"/><path style="fill:#ffb079;stroke:none" d="m226 149 1 1-1-1z"/><path style="fill:none;stroke:none" d="M348 149.681c-13.633.492-15.055 20.592-1 20.04 13.689-.538 15.749-20.573 1-20.04m90 0c-13.733.496-15.259 20.6-1 20.04 13.689-.538 15.749-20.573 1-20.04z"/><path style="fill:#ffb889;stroke:none" d="m207 150 1 1-1-1z"/><path style="fill:#ffa568;stroke:none" d="m225 151 1 1-1-1z"/><path style="fill:#ffa365;stroke:none" d="m206 152 1 1-1-1z"/><path style="fill:#ffd4b8;stroke:none" d="M128.333 153.667c-.055.055-.111 1.111.334.666.055-.055.111-1.111-.334-.666z"/><path style="fill:#ffd8bf;stroke:none" d="m205 153 1 1-1-1z"/><path style="fill:#ffa76c;stroke:none" d="m224 153 1 1-1-1z"/><path style="fill:#ffa86e;stroke:none" d="m204 155 1 1-1-1z"/><path style="fill:#ffb482;stroke:none" d="m223 155 1 1-1-1z"/><path style="fill:#ffd6ba;stroke:none" d="m203 156 1 1-1-1z"/><path style="fill:#ffcca9;stroke:none" d="M127 157v12c1.512-3.604 1.512-8.396 0-12z"/><path style="fill:#ffe7d6;stroke:none" d="M144.333 157.667c-.055.055-.111 1.111.334.666.055-.055.111-1.111-.334-.666z"/><path style="fill:#ffba8e;stroke:none" d="m222 157 1 1-1-1z"/><path style="fill:#ffaa71;stroke:none" d="m202 158 1 1-1-1z"/><path style="fill:#ffd1b2;stroke:none" d="m201 159 1 1-1-1z"/><path style="fill:#fca;stroke:none" d="m221 159 1 1-1-1z"/><path style="fill:#ffd3b4;stroke:none" d="M143 160c.013 3.194-.403 5.271 3 6l-3-6z"/><path style="fill:#ff954d;stroke:none" d="m220 160 1 1-1-1z"/><path style="fill:#ffa05f;stroke:none" d="m199 162 1 1-1-1z"/><path style="fill:#ffba8c;stroke:none" d="m219 162 1 1-1-1z"/><path style="fill:#ffbd91;stroke:none" d="m198 163 1 1-1-1z"/><path style="fill:#ff9248;stroke:none" d="M39 164c1.769.779 3.036.912 5 1-1.769-.779-3.036-.912-5-1z"/><path style="fill:#ffd6bc;stroke:none" d="m197 164 1 1-1-1z"/><path style="fill:#ff9f5f;stroke:none" d="m37 165 1 1-1-1z"/><path style="fill:#ffeadd;stroke:none" d="M104.667 165.333c-.445.445.611.389.666.334.445-.445-.611-.389-.666-.334z"/><path style="fill:#ffac73;stroke:none" d="m217 165 1 1-1-1z"/><path style="fill:#ffcdaa;stroke:none" d="m47 166 1 1-1-1z"/><path style="fill:#ffe5d3;stroke:none" d="M107.667 166.333c-.445.445.611.389.666.334.445-.445-.611-.389-.666-.334z"/><path style="fill:#ffcdab;stroke:none" d="m48 167 1 1-1-1z"/><path style="fill:#ffdfc9;stroke:none" d="M111 167c1.248.685 1.548.749 3 1-1.248-.685-1.548-.749-3-1z"/><path style="fill:#ffb27e;stroke:none" d="m34 168 1 1-1-1z"/><path style="fill:#ffd1b2;stroke:none" d="m49 168 1 1-1-1z"/><path style="fill:#ffe8d8;stroke:none" d="M116 168c3.432 1.44 7.3 1 11 1-3.432-1.44-7.3-1-11-1z"/><path style="fill:#ffc197;stroke:none" d="m215 168 1 1-1-1z"/><path style="fill:#ffd7bb;stroke:none" d="m50 169 1 1-1-1z"/><path style="fill:#ff9045;stroke:none" d="m193 169 1 1-1-1z"/><path style="fill:#ff964e;stroke:none" d="m214 169 1 1-1-1z"/><path style="fill:#ffbc8f;stroke:none" d="M33 170v4c.71-1.759.71-2.241 0-4z"/><path style="fill:#f95;stroke:none" d="m192 170 1 1-1-1z"/><path style="fill:#ff9b59;stroke:none" d="m191 171 1 1-1-1z"/><path style="fill:#ffd2b4;stroke:none" d="m213 171 1 1-1-1z"/><path style="fill:#ff9349;stroke:none" d="m190 172 1 1-1-1z"/><path style="fill:#ffbd91;stroke:none" d="m212 172 1 1-1-1z"/><path style="fill:#ffd4b6;stroke:none" d="m54 173 1 1-1-1z"/><path style="fill:#ffa568;stroke:none" d="m211 173 1 1-1-1z"/><path style="fill:#ffc39d;stroke:none" d="m55 174 1 1-1-1z"/><path style="fill:#ff8c40;stroke:none" d="m210 174 1 1-1-1z"/><path style="fill:#ffb889;stroke:none" d="m56 175 1 1-1-1z"/><path style="fill:#ffc096;stroke:none" d="m34 176 1 1-1-1z"/><path style="fill:#ffad76;stroke:none" d="m57 176 1 1-1-1z"/><path style="fill:#ffd8bf;stroke:none" d="m185 176 1 1-1-1z"/><path style="fill:#ff9348;stroke:none" d="m35 177 1 1-1-1z"/><path style="fill:#ff8f45;stroke:none" d="m58 177 1 1-1-1z"/><path style="fill:#ffbf95;stroke:none" d="m184 177 1 1-1-1z"/><path style="fill:#ffd0b2;stroke:none" d="m208 177 1 1-1-1z"/><path style="fill:#ff9f5f;stroke:none" d="m183 178 1 1-1-1z"/><path style="fill:#fca;stroke:none" d="m207 178 1 1-1-1z"/><path style="fill:#ffc49d;stroke:none" d="m61 179 1 1-1-1z"/><path style="fill:#ffc39c;stroke:none" d="m206 179 1 1-1-1z"/><path style="fill:#ffa870;stroke:none" d="m62 180 1 1-1-1z"/><path style="fill:#ffd1b3;stroke:none" d="m180 180 1 1-1-1z"/><path style="fill:#ffb989;stroke:none" d="m205 180 1 1-1-1z"/><path style="fill:#ffd1b4;stroke:none" d="M100.667 181.333c-.445.445.611.389.666.334.445-.445-.611-.389-.666-.334z"/><path style="fill:#ffe6d5;stroke:none" d="M148.667 181.333c-.445.445.611.389.666.334.445-.445-.611-.389-.666-.334z"/><path style="fill:#ffac75;stroke:none" d="m179 181 1 1-1-1z"/><path style="fill:#ffb17d;stroke:none" d="m204 181 1 1-1-1z"/><path style="fill:#ffb98c;stroke:none" d="m65 182 1 1-1-1z"/><path style="fill:#ffad76;stroke:none" d="m203 182 1 1-1-1z"/><path style="fill:#ff8c3f;stroke:none" d="m66 183 1 1-1-1z"/><path style="fill:#ffe0cd;stroke:none" d="M107 183c1.248.685 1.548.749 3 1-1.248-.685-1.548-.749-3-1m33.667.333c-.445.445.611.389.666.334.445-.445-.611-.389-.666-.334z"/><path style="fill:#ffb07b;stroke:none" d="m176 183 1 1-1-1z"/><path style="fill:#ffb887;stroke:none" d="m202 183 1 1-1-1z"/><path style="fill:#ffc299;stroke:none" d="m68 184 1 1-1-1z"/><path style="fill:#ffdac0;stroke:none" d="M112 184c1.769.779 3.036.912 5 1-1.769-.779-3.036-.912-5-1m21 0c1.248.685 1.548.749 3 1-1.248-.685-1.548-.749-3-1z"/><path style="fill:#ffbf95;stroke:none" d="m201 184 1 1-1-1z"/><path style="fill:#ff8c3f;stroke:none" d="m43 185 1 1-1-1z"/><path style="fill:#fff4ed;stroke:none" d="M118 185c2.89 1.213 5.874.998 9 1-2.89-1.213-5.874-.998-9-1z"/><path style="fill:#ffb17d;stroke:none" d="m173 185 1 1-1-1z"/><path style="fill:#ffcdab;stroke:none" d="m200 185 1 1-1-1z"/><path style="fill:#ff9148;stroke:none" d="m44 186 1 1-1-1z"/><path style="fill:#ff9d5b;stroke:none" d="m71 186 1 1-1-1z"/><path style="fill:#ffc49a;stroke:none" d="m171 186 1 1-1-1z"/><path style="fill:#ffd3b5;stroke:none" d="m199 186 1 1-1-1z"/><path style="fill:#ff9651;stroke:none" d="m45 187 1 1-1-1z"/><path style="fill:#ffb481;stroke:none" d="m73 187 1 1-1-1z"/><path style="fill:#ffd6ba;stroke:none" d="m169 187 1 1-1-1z"/><path style="fill:#ffd7bb;stroke:none" d="m198 187 1 1-1-1z"/><path style="fill:#ff9e5c;stroke:none" d="m46 188 1 1-1-1z"/><path style="fill:#ffcaa7;stroke:none" d="m75 188 1 1-1-1z"/><path style="fill:#ffa05e;stroke:none" d="m168 188 1 1-1-1z"/><path style="fill:#ffaf7a;stroke:none" d="m47 189 1 1-1-1z"/><path style="fill:#ffcaa7;stroke:none" d="m77 189 1 1-1-1z"/><path style="fill:#ffa466;stroke:none" d="m166 189 1 1-1-1z"/><path style="fill:#ffceac;stroke:none" d="m48 190 1 1-1-1z"/><path style="fill:#ffc9a4;stroke:none" d="m79 190 1 1-1-1z"/><path style="fill:#ff9a58;stroke:none" d="m164 190 1 1-1-1z"/><path style="fill:#ff9d5b;stroke:none" d="m194 190 1 1-1-1z"/><path style="fill:#ffbd90;stroke:none" d="m81 191 1 1-1-1z"/><path style="fill:#ffd3b4;stroke:none" d="m161 191 1 1-1-1z"/><path style="fill:#ff8f43;stroke:none" d="m162 191 1 1-1-1z"/><path style="fill:#ffb686;stroke:none" d="m193 191 1 1-1-1z"/><path style="fill:#ff9c5a;stroke:none" d="m51 192 1 1-1-1z"/><path style="fill:#ffa466;stroke:none" d="m83 192 1 1-1-1z"/><path style="fill:#ffbf95;stroke:none" d="m159 192 1 1-1-1z"/><path style="fill:#ffcaa7;stroke:none" d="m192 192 1 1-1-1z"/><path style="fill:#ffb889;stroke:none" d="m52 193 1 1-1-1z"/><path style="fill:#ffc9a6;stroke:none" d="m86 193 1 1-1-1z"/><path style="fill:#ffd8c0;stroke:none" d="m156 193 1 1-1-1z"/><path style="fill:#ff9e5d;stroke:none" d="m157 193 1 1-1-1z"/><path style="fill:#ff8c40;stroke:none" d="m190 193 1 1-1-1z"/><path style="fill:#ff9c5a;stroke:none" d="m88 194 1 1-1-1z"/><path style="fill:#ffceac;stroke:none" d="m89 194 1 1-1-1z"/><path style="fill:#ffba8c;stroke:none" d="m154 194 1 1-1-1z"/><path style="fill:#ffb483;stroke:none" d="m189 194 1 1-1-1z"/><path style="fill:#ffa468;stroke:none" d="m55 195 1 1-1-1z"/><path style="fill:#f95;stroke:none" d="m91 195 1 1-1-1z"/><path style="fill:#ffc9a6;stroke:none" d="m92 195 1 1-1-1z"/><path style="fill:#ffb583;stroke:none" d="m151 195 1 1-1-1z"/><path style="fill:#ffd0b2;stroke:none" d="m56 196 1 1-1-1z"/><path style="fill:#ff8e43;stroke:none" d="m94 196 1 1-1-1z"/><path style="fill:#ffdcc5;stroke:none" d="M95.667 196.333c-.445.445.61.389.666.334.445-.445-.61-.389-.666-.334z"/><path style="fill:#ffd4b7;stroke:none" d="m147 196 1 1-1-1z"/><path style="fill:#ffab72;stroke:none" d="m148 196 1 1-1-1z"/><path style="fill:#ffa365;stroke:none" d="m186 196 1 1-1-1z"/><path style="fill:#ff9d5b;stroke:none" d="m58 197 1 1-1-1z"/><path style="fill:#ff9550;stroke:none" d="m98 197 1 1-1-1z"/><path style="fill:#ffe3d1;stroke:none" d="M99.667 197.333c-.445.445.611.389.666.334.445-.445-.61-.389-.666-.334z"/><path style="fill:#ffa56a;stroke:none" d="M143.667 197.333c-.445.445.611.389.666.334.445-.445-.611-.389-.666-.334z"/><path style="fill:#ffd3b4;stroke:none" d="m185 197 1 1-1-1z"/><path style="fill:#ffcaa7;stroke:none" d="m59 198 1 1-1-1z"/><path style="fill:#ffb98a;stroke:none" d="M103.667 198.333c-.445.445.611.389.666.334.445-.445-.611-.389-.666-.334z"/><path style="fill:#ffe8da;stroke:none" d="M105.667 198.333c-.445.445.611.389.666.334.445-.445-.611-.389-.666-.334z"/><path style="fill:#ffc6a0;stroke:none" d="M137 198c1.248.685 1.548.749 3 1-1.248-.685-1.548-.749-3-1z"/><path style="fill:#ffaa72;stroke:none" d="m183 198 1 1-1-1z"/><path style="fill:#ffaf79;stroke:none" d="m61 199 1 1-1-1z"/><path style="fill:#ff8d41;stroke:none" d="M108.667 199.333c-.445.445.611.389.666.334.445-.445-.611-.389-.666-.334z"/><path style="fill:#ffb27e;stroke:none" d="M110.667 199.333c-.445.445.611.389.666.334.445-.445-.611-.389-.666-.334z"/><path style="fill:#ffd3b6;stroke:none" d="M112.667 199.333c-.445.445.611.389.666.334.445-.445-.611-.389-.666-.334z"/><path style="fill:#ffc8a4;stroke:none" d="M129 199c1.248.685 1.548.749 3 1-1.248-.685-1.548-.749-3-1z"/><path style="fill:#ff9c5a;stroke:none" d="M132 199c1.248.685 1.548.749 3 1-1.248-.685-1.548-.749-3-1z"/><path style="fill:#ff9853;stroke:none" d="m63 200 1 1-1-1z"/><path style="fill:#ffb88a;stroke:none" d="m180 200 1 1-1-1z"/><path style="fill:#ffd4b9;stroke:none" d="m64 201 1 1-1-1z"/><path style="fill:#ffa66b;stroke:none" d="m178 201 1 1-1-1z"/><path style="fill:#ffc095;stroke:none" d="m66 202 1 1-1-1z"/><path style="fill:#f95;stroke:none" d="m176 202 1 1-1-1z"/><path style="fill:#ffbe93;stroke:none" d="m68 203 1 1-1-1m2 1 1 1-1-1z"/><path style="fill:#ff8d40;stroke:none" d="m172 204 1 1-1-1z"/><path style="fill:#ffd3b4;stroke:none" d="m173 204 1 1-1-1z"/><path style="fill:#ffbe93;stroke:none" d="m72 205 1 1-1-1z"/><path style="fill:#ff9752;stroke:none" d="m170 205 1 1-1-1z"/><path style="fill:#ffc8a2;stroke:none" d="m74 206 1 1-1-1z"/><path style="fill:#ffa569;stroke:none" d="m168 206 1 1-1-1z"/><path style="fill:#ffa162;stroke:none" d="m77 207 1 1-1-1z"/><path style="fill:#ffb583;stroke:none" d="m166 207 1 1-1-1z"/><path style="fill:#ffbb8d;stroke:none" d="m79 208 1 1-1-1z"/><path style="fill:#ffa162;stroke:none" d="m163 208 1 1-1-1z"/><path style="fill:#ffd4b8;stroke:none" d="m81 209 1 1-1-1z"/><path style="fill:#ffa162;stroke:none" d="m82 209 1 1-1-1z"/><path style="fill:#ffc7a0;stroke:none" d="m161 209 1 1-1-1z"/><path style="fill:#ffd5b8;stroke:none" d="m84 210 1 1-1-1z"/><path style="fill:#ffa365;stroke:none" d="m85 210 1 1-1-1z"/><path style="fill:#ffbc8e;stroke:none" d="m158 210 1 1-1-1z"/><path style="fill:#ffd5ba;stroke:none" d="m87 211 1 1-1-1z"/><path style="fill:#ffa569;stroke:none" d="m88 211 1 1-1-1z"/><path style="fill:#ff9248;stroke:none" d="m154 211 1 1-1-1z"/><path style="fill:#ffc29a;stroke:none" d="m155 211 1 1-1-1z"/><path style="fill:#ffbf93;stroke:none" d="m91 212 1 1-1-1z"/><path style="fill:#ffa162;stroke:none" d="m151 212 1 1-1-1z"/><path style="fill:#ffba8c;stroke:none" d="m95 213 1 1-1-1z"/><path style="fill:#ffcfae;stroke:none" d="M147.667 213.333c-.445.445.611.389.666.334.445-.445-.611-.389-.666-.334z"/><path style="fill:#ffba8b;stroke:none" d="M99 214c1.248.685 1.548.749 3 1-1.248-.685-1.548-.749-3-1z"/><path style="fill:#ffac73;stroke:none" d="M141.667 214.333c-.445.445.611.389.666.334.445-.445-.611-.389-.666-.334z"/><path style="fill:#ffdbc4;stroke:none" d="M143.667 214.333c-.445.445.611.389.666.334.445-.445-.611-.389-.666-.334z"/><path style="fill:#ffcfaf;stroke:none" d="M104 215c1.248.685 1.548.749 3 1-1.248-.685-1.548-.749-3-1z"/><path style="fill:#ff9b58;stroke:none" d="M107.667 215.333c-.445.445.611.389.666.334.445-.445-.611-.389-.666-.334z"/><path style="fill:#ffa366;stroke:none" d="M134 215c1.248.685 1.548.749 3 1-1.248-.685-1.548-.749-3-1z"/><path style="fill:#ffddc6;stroke:none" d="M137.667 215.333c-.445.445.611.389.666.334.445-.445-.611-.389-.666-.334z"/><path style="fill:#ffd9bf;stroke:none" d="M111 216c2.052.874 3.747.953 6 1-2.052-.874-3.747-.953-6-1z"/><path style="fill:#ff944e;stroke:none" d="M117 216c3.959 1.661 8.737 1 13 1-3.959-1.661-8.737-1-13-1z"/><path style="fill:#ffbc8f;stroke:none" d="M117 217v4h16v-5c-5.388.681-10.563 1-16 1z"/><path style="fill:#fff6ef;stroke:none" d="M133 216v5h14c-3.959-1.661-8.737-1-13-1-.174-1.685-.317-2.494-1-4m-17 1c-2.853 4.4-9.255 3-14 3 4.471 1.876 10.183 1 15 1-.174-1.685-.317-2.494-1-4z"/><path style="fill:#ffa86d;stroke:none" d="m101 221 1 1-1-1z"/><path style="fill:#af2e42;stroke:none" d="M102.015 221.742c-6.288 2.481-7.878 11.658-.96 14.516 3.52 1.454 8.219.742 11.945.742h24c3.949 0 9.301.873 12.867-1.179 6.544-3.766 3.516-12.616-2.871-14.387-9.152-2.539-21.513-.434-30.996-.434-4.337 0-9.876-.878-13.985.742z"/><path style="fill:#ffa86d;stroke:none" d="m148 221 1 1-1-1z"/><path style="fill:#ffaa72;stroke:none" d="m99 222 1 1-1-1m51 0 1 1-1-1z"/><path style="fill:#ff9249;stroke:none" d="m98 223 1 1-1-1m53 0 1 1-1-1z"/><path style="fill:#ffaa72;stroke:none" d="m97 224 1 1-1-1m55 0 1 1-1-1z"/><path style="fill:#ffa76d;stroke:none" d="m96 226 1 1-1-1m57 0 1 1-1-1z"/><path style="fill:#ff9751;stroke:none" d="m96 231 1 1-1-1m57 0 1 1-1-1z"/><path style="fill:#ffcead;stroke:none" d="m96 232 1 1-1-1m57 0 1 1-1-1z"/><path style="fill:#ffb482;stroke:none" d="m100 236 1 1-1-1m49 0 1 1-1-1z"/><path style="fill:#ffc9a4;stroke:none" d="M102 237c4.469 1.875 10.191 1 15 1h30c-4.469-1.875-10.191-1-15-1h-30z"/></svg>