<svg xmlns="http://www.w3.org/2000/svg" width="500" height="500"><path style="fill:none;stroke:none" d="M0 0v500h500V0H0z"/><path style="fill:#007f42;stroke:none" d="M222 162c-17.3 22.507-32.861 46.659-49.025 70-7.418 10.712-18.999 22.544-22.975 35h52c6.521 0 16.755 1.94 22.816-.603 3.056-1.283 4.787-4.828 6.608-7.397 3.767-5.313 7.576-10.611 11.232-16 1.728-2.547 4.506-5.709 4.223-9-.33-3.837-4.048-7.712-5.879-11h-2c-3.783 6.641-8.624 12.717-12.975 19-2.293 3.31-4.569 7.939-8.199 9.972C214.314 253.94 208.881 253 205 253h-29c8.056-13.054 17.482-25.431 26.28-38 6.769-9.67 13.062-20.015 20.72-29 2.67 7.292 7.812 13.484 11.947 20 7.861 12.389 16.118 24.538 23.861 37 3.367 5.42 7.04 10.64 10.5 16 1.488 2.306 2.841 5.435 5.221 6.972 3.777 2.44 11.13 1.028 15.471 1.028-2.643-11.247-13.09-22.346-19.308-32-10.747-16.686-21.35-33.485-32.359-50-5.019-7.529-9.318-17.202-16.333-23z"/><path style="fill:#ae6500;stroke:none" d="M282 162c-6.688 8.701-12.727 17.977-18.975 27-2.274 3.284-6.894 7.839-7.093 12-.197 4.11 4.157 8.567 6.068 12h2c5.232-9.388 12.028-18.825 19-27 2.796 7.636 8.236 14.23 12.656 21 7.809 11.961 15.637 23.939 23.291 36 3.406 5.367 6.914 10.659 10.361 16 1.488 2.306 2.841 5.435 5.221 6.972 3.777 2.44 11.13 1.028 15.471 1.028-2.665-8.419-8.93-15.581-13.576-23-10.325-16.491-21.196-32.643-31.732-49-6.734-10.455-13.075-25.052-22.692-33z"/><path style="fill:#dfffff;stroke:none" d="M205 287v22h5v-12c3.987 5.599 5.283 11.744 13 12v-22h-5v13c-3.498-5.931-5.31-12.744-13-13m62 1c-8.345-1.902-2.994 7.434 0 0m3-1c-.175 2.698-1.481 5.368-1.481 8 0 2.04 1.1 4.009 1.353 6.039.279 2.242-.277 5.328 1.73 6.933 1.674 1.339 4.411 1.004 6.398 1.028v-4h-3v-8h3v-4h-3v-6h-5m-40.786 7.028c-8.989 5.332-.554 19.657 8.677 14.653 9.576-5.19 1.195-20.51-8.677-14.653M260 303c-2.448.167-5.495 1.47-7.877 1.107-3.071-.468-3.921-4.671-.829-5.859 2.397-.921 6.167.593 8.706.752-2.755-7.66-15.11-8.386-15.876 1.004-.885 10.852 12.485 12.674 15.876 2.996m1-10v16h5v-16h-5m22.189.742c-9.319 4.127-2.123 19.531 7.706 15.245 10.358-4.516 2.705-19.856-7.706-15.245z"/><path style="fill:none;stroke:none" d="M232.303 298.086c-3.588 2.146-.362 8.175 3.097 5.828 2.995-2.032.553-8.01-3.097-5.828m53.297 0c-3.333 2.262.111 8.645 3.658 5.867 2.994-2.346-.284-8.156-3.658-5.867z"/></svg>