<svg xmlns="http://www.w3.org/2000/svg" width="600" height="250"><path style="fill:none;stroke:none" d="M0 0v250h600V0H0z"/><path style="fill:#ffddc7;stroke:none" d="M115.667 20.333c-.445.445.611.39.666.334.445-.445-.611-.39-.666-.334z"/><path style="fill:#ffc196;stroke:none" d="M117 20c1.769.779 3.036.912 5 1-1.769-.779-3.036-.912-5-1z"/><path style="fill:#ffdec8;stroke:none" d="M122.667 20.333c-.445.445.611.39.666.334.445-.445-.611-.39-.666-.334z"/><path style="fill:#fca;stroke:none" d="m112 21 1 1-1-1z"/><path style="fill:#ff8331;stroke:none" d="M113.667 21.333c-.445.445.611.39.666.334.445-.445-.611-.39-.666-.334z"/><path style="fill:#af2e42;stroke:none" d="M115 21.468c-20.917 3.946-27.826 31.042-11.826 44.851 6.262 5.405 14.809 6.761 22.826 5.352 16.085-2.826 23.749-22.583 17.08-36.671-4.953-10.465-16.999-15.623-28.08-13.532z"/><path style="fill:#ffa468;stroke:none" d="m126 21 1 1-1-1z"/><path style="fill:#ff9e5c;stroke:none" d="m110 22 1 1-1-1z"/><path style="fill:#ffa162;stroke:none" d="m129 22 1 1-1-1z"/><path style="fill:#ffd6bc;stroke:none" d="m107 23 1 1-1-1z"/><path style="fill:#ff8e43;stroke:none" d="m108 23 1 1-1-1z"/><path style="fill:#ff9047;stroke:none" d="m131 23 1 1-1-1z"/><path style="fill:#ff9e5c;stroke:none" d="m106 24 1 1-1-1z"/><path style="fill:#ffa163;stroke:none" d="m133 24 1 1-1-1z"/><path style="fill:#ffcdaa;stroke:none" d="m104 25 1 1-1-1z"/><path style="fill:#ffd0b1;stroke:none" d="m135 25 1 1-1-1z"/><path style="fill:#ffaf7a;stroke:none" d="m103 26 1 1-1-1z"/><path style="fill:#ffb381;stroke:none" d="m136 26 1 1-1-1z"/><path style="fill:#ffa162;stroke:none" d="m102 27 1 1-1-1z"/><path style="fill:#ffa469;stroke:none" d="m137 27 1 1-1-1z"/><path style="fill:#f95;stroke:none" d="m101 28 1 1-1-1z"/><path style="fill:#ffa163;stroke:none" d="m138 28 1 1-1-1z"/><path style="fill:#000;stroke:none" d="M256 28v193h2V28h-2z"/><path style="fill:#ffa468;stroke:none" d="m100 29 1 1-1-1z"/><path style="fill:#ffa76e;stroke:none" d="m139 29 1 1-1-1z"/><path style="fill:#ffb98b;stroke:none" d="m99 30 1 1-1-1z"/><path style="fill:#ffc197;stroke:none" d="m140 30 1 1-1-1z"/><path style="fill:#ffd7be;stroke:none" d="m98 31 1 1-1-1z"/><path style="fill:#ffba8e;stroke:none" d="m97 33 1 1-1-1z"/><path style="fill:#ffc096;stroke:none" d="m142 33 1 1-1-1z"/><path style="fill:#ffb17d;stroke:none" d="m96 35 1 1-1-1z"/><path style="fill:#ffb989;stroke:none" d="m143 35 1 1-1-1z"/><path style="fill:#ffc8a2;stroke:none" d="m95 37 1 1-1-1z"/><path style="fill:#ffcead;stroke:none" d="m144 37 1 1-1-1z"/><path style="fill:#ff9854;stroke:none" d="m144 38 1 1-1-1z"/><path style="fill:#ffb27e;stroke:none" d="M94.333 40.667c-.055.055-.11 1.11.334.666.055-.055.11-1.11-.334-.666z"/><path style="fill:#ffb98b;stroke:none" d="M145.333 40.667c-.055.055-.111 1.11.334.666.055-.055.111-1.11-.334-.666z"/><path style="fill:#ff781d;stroke:none" d="M145 42v8c1.161-2.77 1.161-5.23 0-8z"/><path style="fill:#ff9047;stroke:none" d="M94 49v3c.696-1.554.696-1.446 0-3z"/><path style="fill:#ffb27e;stroke:none" d="M145.333 50.667c-.055.055-.111 1.11.334.666.055-.055.111-1.11-.334-.666z"/><path style="fill:#ffe9dc;stroke:none" d="M94.333 52.667c-.055.055-.11 1.11.334.666.055-.055.11-1.11-.334-.666z"/><path style="fill:#ffb98b;stroke:none" d="m95 55 1 1-1-1z"/><path style="fill:#ffc197;stroke:none" d="m144 55 1 1-1-1z"/><path style="fill:#ffa060;stroke:none" d="m96 57 1 1-1-1z"/><path style="fill:#ffa76c;stroke:none" d="m143 57 1 1-1-1z"/><path style="fill:#ffa76b;stroke:none" d="m97 59 1 1-1-1z"/><path style="fill:#ffac75;stroke:none" d="m142 59 1 1-1-1z"/><path style="fill:#ffc9a3;stroke:none" d="m98 61 1 1-1-1z"/><path style="fill:#ffcead;stroke:none" d="m141 61 1 1-1-1z"/><path style="fill:#ffa569;stroke:none" d="m99 62 1 1-1-1z"/><path style="fill:#ffac75;stroke:none" d="m140 62 1 1-1-1z"/><path style="fill:#ff8e45;stroke:none" d="m100 63 1 1-1-1z"/><path style="fill:#ff9249;stroke:none" d="m139 63 1 1-1-1z"/><path style="fill:#000;stroke:none" d="M391 64v14h-7c2.433 1.874 5.02 2.255 8 3-1.936 6.551-.607 13.478 1 20 2.5-5.959 1-14.564 1-21h7v-2h-7c-.003-5.002.294-9.976-3-14m-18 1c.899 2.124.876 2.1 3 3-1.103-1.457-1.543-1.897-3-3z"/><path style="fill:#ff9147;stroke:none" d="m103 66 1 1-1-1z"/><path style="fill:#ff944d;stroke:none" d="m136 66 1 1-1-1z"/><path style="fill:#ffac74;stroke:none" d="m104 67 1 1-1-1z"/><path style="fill:#ffb07b;stroke:none" d="m135 67 1 1-1-1z"/><path style="fill:#ffd0b1;stroke:none" d="m105 68 1 1-1-1z"/><path style="fill:#ffd3b7;stroke:none" d="m134 68 1 1-1-1z"/><path style="fill:#ffb583;stroke:none" d="m107 69 1 1-1-1z"/><path style="fill:#ffb889;stroke:none" d="m132 69 1 1-1-1z"/><path style="fill:#ffb887;stroke:none" d="m109 70 1 1-1-1z"/><path style="fill:#ffba8c;stroke:none" d="m130 70 1 1-1-1z"/><path style="fill:#000;stroke:none" d="M278 70c1.885 10.154 0 20.695 0 31h2c0-5.4-.258-10.718 1-16 5.506 5.067 8.663 14.025 17 15.142 16.715 2.239 13.179-21.112 5-28.142.573 5.598 4.081 9.676 5.323 15 2.032 8.715-7.568 13.056-14.319 8.99-5.839-3.515-8.828-9.886-11.193-15.99-1.337-3.452-1.886-7.646-4.811-10z"/><path style="fill:#ffd4b8;stroke:none" d="m111 71 1 1-1-1z"/><path style="fill:#ffa76b;stroke:none" d="m112 71 1 1-1-1z"/><path style="fill:#ffa86f;stroke:none" d="m127 71 1 1-1-1z"/><path style="fill:#ffd1b3;stroke:none" d="M114.667 72.333c-.445.445.611.39.666.334.445-.445-.611-.39-.666-.334z"/><path style="fill:#ff9b58;stroke:none" d="M116 72c2.332.984 4.457.981 7 1-2.332-.984-4.457-.981-7-1z"/><path style="fill:#ffd3b5;stroke:none" d="M123.667 72.333c-.445.445.611.39.666.334.445-.445-.611-.39-.666-.334z"/><path style="fill:#ffaf7b;stroke:none" d="M196 75c1.506.683 2.315.826 4 1-1.506-.683-2.315-.826-4-1z"/><path style="fill:#000;stroke:none" d="M369 100c-7.073-2.968-15.207 1.117-20.138-7.019C343.221 83.677 356.279 71.56 364 81c1.768-8.514-11.143-5.55-14.606-1.786-5.675 6.166-5.274 16.255 2.621 20.33 4.926 2.541 11.807 1.689 16.985.456m7-25c0 8.557-.03 17.91 3 26 2.458-5.859.787-21.002-3-26m106 25c-6.396-2.684-14.501.77-19.258-6.108-4.114-5.949.048-15.477 7.089-16.76 3.069-.56 5.653 1.423 8.169 2.868-3.134-5.971-9.882-5.95-14.66-1.467-5.956 5.588-5.943 16.721 1.703 20.779 2.168 1.15 4.536 1.527 6.957 1.648 3.461.173 6.692.018 10-.96m36-21c0 7.28-.732 16.703 5 22-.917-4.729-2.786-10.154-1.99-15 1.226-7.464 9.436-10.95 14.571-4.891 4.554 5.373 4.418 13.276 4.419 19.891 4.475-6.55.999-23.838-8.015-25.461C527.334 74.7 522.724 78.764 518 79z"/><path style="fill:#ff9b59;stroke:none" d="m194 76 1 1-1-1z"/><path style="fill:#af2e42;stroke:none" d="M191 124v86c0 6.958-3.591 27.166 7.996 25.833 4.404-.507 5.812-3.847 5.985-7.833.374-8.633.019-17.359.019-26v-96c0-6.996.127-14.005-.005-21-.072-3.847-.74-7.467-5.014-8.55-4.254-1.08-7.956 1.33-8.753 5.565-1.276 6.787 1.974 15.68-1.256 21.97-1.645 3.205-4.95 5.377-7.972 7.138-9.408 5.482-20.331 7.466-31 5.416-14.189-2.726-24.472-12.01-38.999-3.659-2.441 1.403-4.649 3.064-6.482 5.213-1.98 2.321-3.628 5.053-4.705 7.907-4.688 12.429-3.583 28.781 5.512 38.91 3.903 4.347 9.231 6.748 13.674 10.419 8.234 6.804 15.211 15.473 18.644 25.671 3.263 9.692 1.319 20.522 4.7 29.981 1.525 4.266 6.364 6.435 10.508 3.991 2.912-1.717 3.086-4.942 3.143-7.972.126-6.663-.395-13.417-1.434-20-2.213-14.025-8.559-27.783-18.651-37.91-9.549-9.582-25.323-13.905-23.177-30.09.265-2 .424-4.103 1.16-6 1.836-4.736 6.768-9.134 12.107-8.377 6.193.879 11.825 5.005 18 6.362 15.735 3.457 31.953.375 46-6.985z"/><path style="fill:#ff9247;stroke:none" d="m201 76 1 1-1-1z"/><path style="fill:#ffd7be;stroke:none" d="m192 77 1 1-1-1z"/><path style="fill:#ffc299;stroke:none" d="m203 77 1 1-1-1z"/><path style="fill:#000;stroke:none" d="M327 77.533c-4.593.998-9.512 3.904-11.257 8.47-3.687 9.654 6.664 16.563 15.257 14.603 14.81-3.38 10.668-26.259-4-23.073m90 0c-4.275.929-8.768 3.486-10.821 7.482-5.042 9.816 5.806 17.648 14.821 15.591 14.81-3.38 10.668-26.259-4-23.073m82-.01c-4.725.966-9.476 3.782-11.257 8.478-3.662 9.656 6.645 16.57 15.257 14.605 14.802-3.378 10.716-26.095-4-23.084z"/><path style="fill:#ffd5b8;stroke:none" d="m204 78 1 1-1-1z"/><path style="fill:#ff9650;stroke:none" d="m191 79 1 1-1-1z"/><path style="fill:none;stroke:none" d="M326 79.548c-13.699 2.86-10.631 21.935 3 19.055 14.035-2.966 10.887-21.955-3-19.055m90-.029c-13.361 2.107-11.652 20.961 2 19.252 14.757-1.847 12.685-21.567-2-19.252m82 .05c-13.816 2.52-10.901 21.977 3 19.034 13.815-2.925 10.87-21.563-3-19.034z"/><path style="fill:#ffccab;stroke:none" d="m205 80 1 1-1-1z"/><path style="fill:#ff9651;stroke:none" d="M190 81v24c2.349-5.597 2.349-18.403 0-24z"/><path style="fill:#ff832f;stroke:none" d="M205 81v150c1.552-3.699 1-8.017 1-12V94c0-4.26.661-9.041-1-13z"/><path style="fill:#ffebdf;stroke:none" d="M77 96c2.613 1.098 5.165.993 8 1-2.613-1.098-5.165-.993-8-1z"/><path style="fill:#ffbc8f;stroke:none" d="M85 96.424C69.908 98.406 51.068 96.331 45.928 115 40.947 133.094 53.78 143.567 66 154.285c4.457 3.909 10.14 10.809 16.941 8.111 5.294-2.1 4.714-9.28 1.625-12.972-5.58-6.67-13.263-11.637-19.461-17.709-2.775-2.719-5.655-6.604-4.32-10.715 5.077-15.624 26.667-4.866 37.067-11.028 4.307-2.552 4.041-10.067-.08-12.654-3.501-2.197-8.899-1.402-12.772-.894z"/><path style="fill:#ffdec7;stroke:none" d="M65 97c1.769.779 3.036.912 5 1-1.77-.779-3.036-.912-5-1z"/><path style="fill:#ffd4b6;stroke:none" d="M62.667 98.333c-.445.445.61.39.666.334.445-.445-.61-.39-.666-.334z"/><path style="fill:#ffd3b4;stroke:none" d="M101 101v5c.83-2.03.83-2.97 0-5z"/><path style="fill:#ffc199;stroke:none" d="m187 107 1 1-1-1z"/><path style="fill:#ffe4d1;stroke:none" d="M122 108c2.613 1.098 5.164.993 8 1-2.613-1.098-5.164-.993-8-1z"/><path style="fill:#ffa76b;stroke:none" d="m186 108 1 1-1-1z"/><path style="fill:#ffa162;stroke:none" d="M119.667 109.333c-.445.445.611.389.666.334.445-.445-.611-.389-.666-.334z"/><path style="fill:#ffb584;stroke:none" d="M130.667 109.333c-.445.445.611.389.666.334.445-.445-.611-.389-.666-.334z"/><path style="fill:#ffd4b7;stroke:none" d="m184 109 1 1-1-1z"/><path style="fill:#ffb07b;stroke:none" d="m116 110 1 1-1-1z"/><path style="fill:#ffa163;stroke:none" d="m134 110 1 1-1-1z"/><path style="fill:#ffa569;stroke:none" d="m183 110 1 1-1-1z"/><path style="fill:#ffd7bb;stroke:none" d="M88 111c2.332.985 4.457.981 7 1-2.332-.985-4.457-.981-7-1z"/><path style="fill:#ffd7be;stroke:none" d="m113 111 1 1-1-1z"/><path style="fill:#f95;stroke:none" d="m114 111 1 1-1-1z"/><path style="fill:#ffc49d;stroke:none" d="m137 111 1 1-1-1z"/><path style="fill:#ffb98b;stroke:none" d="m181 111 1 1-1-1z"/><path style="fill:#ffd1b2;stroke:none" d="M71 112c2.332.985 4.457.981 7 1-2.332-.985-4.457-.981-7-1z"/><path style="fill:#ff9d5b;stroke:none" d="m112 112 1 1-1-1z"/><path style="fill:#ffc096;stroke:none" d="m139 112 1 1-1-1z"/><path style="fill:#ffc39b;stroke:none" d="m179 112 1 1-1-1z"/><path style="fill:#ffb686;stroke:none" d="m110 113 1 1-1-1z"/><path style="fill:#ffb887;stroke:none" d="m141 113 1 1-1-1z"/><path style="fill:#ffb98b;stroke:none" d="m177 113 1 1-1-1z"/><path style="fill:#ff9752;stroke:none" d="m109 114 1 1-1-1z"/><path style="fill:#ff9852;stroke:none" d="m143 114 1 1-1-1z"/><path style="fill:#ffcaa7;stroke:none" d="m144 114 1 1-1-1z"/><path style="fill:#ffd0b2;stroke:none" d="m174 114 1 1-1-1z"/><path style="fill:#f95;stroke:none" d="m175 114 1 1-1-1z"/><path style="fill:#ffd5b8;stroke:none" d="M45.333 115.667c-.055.055-.11 1.111.334.666.055-.055.11-1.111-.334-.666z"/><path style="fill:#ff954d;stroke:none" d="m146 115 1 1-1-1z"/><path style="fill:#ffe6d6;stroke:none" d="M147.667 115.333c-.445.445.611.389.666.334.445-.445-.611-.389-.666-.334z"/><path style="fill:#ffc8a4;stroke:none" d="m171 115 1 1-1-1z"/><path style="fill:#ffb380;stroke:none" d="M150.667 116.333c-.445.445.611.389.666.334.445-.445-.611-.389-.666-.334z"/><path style="fill:#ffdec9;stroke:none" d="M152.667 116.333c-.445.445.611.389.666.334.445-.445-.611-.389-.666-.334z"/><path style="fill:#ffb481;stroke:none" d="M166 116c1.248.685 1.548.749 3 1-1.248-.685-1.548-.749-3-1z"/><path style="fill:#ff8735;stroke:none" d="M157 117c1.769.779 3.036.912 5 1-1.769-.779-3.036-.912-5-1z"/><path style="fill:#ffdfc9;stroke:none" d="M44 119v6c.951-2.285.951-3.715 0-6z"/><path style="fill:#ff964d;stroke:none" d="m104 119 1 1-1-1z"/><path style="fill:#ffb07b;stroke:none" d="m103 120 1 1-1-1z"/><path style="fill:#ff8f42;stroke:none" d="m102 122 1 1-1-1z"/><path style="fill:#ffcaa6;stroke:none" d="m101 123 1 1-1-1z"/><path style="fill:#ffc196;stroke:none" d="M123 124c1.769.779 3.036.912 5 1-1.769-.779-3.036-.912-5-1z"/><path style="fill:#ff7f2a;stroke:none" d="M189.667 124.333c-.445.445.611.389.666.334.445-.445-.611-.389-.666-.334z"/><path style="fill:#ffd2b6;stroke:none" d="m100 125 1 1-1-1z"/><path style="fill:#ff9d5d;stroke:none" d="m120 125 1 1-1-1z"/><path style="fill:#ffbb8c;stroke:none" d="m130 125 1 1-1-1z"/><path style="fill:#ffc7a2;stroke:none" d="m188 125 1 1-1-1z"/><path style="fill:#ff9651;stroke:none" d="M190 125v106c3.105-7.4 1-18.993 1-27v-54c0-7.48 1.903-18.081-1-25z"/><path style="fill:#ff9a57;stroke:none" d="m100 126 1 1-1-1z"/><path style="fill:#ffd0b2;stroke:none" d="m119 126 1 1-1-1z"/><path style="fill:#ffaf7a;stroke:none" d="m132 126 1 1-1-1z"/><path style="fill:#ffb687;stroke:none" d="m186 126 1 1-1-1z"/><path style="fill:#ffb888;stroke:none" d="m134 127 1 1-1-1z"/><path style="fill:#ffbd91;stroke:none" d="m184 127 1 1-1-1z"/><path style="fill:#ffd3b6;stroke:none" d="m99 128 1 1-1-1z"/><path style="fill:#ffcca9;stroke:none" d="m136 128 1 1-1-1z"/><path style="fill:#ff9853;stroke:none" d="m137 128 1 1-1-1z"/><path style="fill:#ff9a58;stroke:none" d="m181 128 1 1-1-1z"/><path style="fill:#ffe5d2;stroke:none" d="M45.333 129.667c-.055.055-.11 1.111.334.666.055-.055.11-1.111-.334-.666z"/><path style="fill:#ff8d41;stroke:none" d="M99.333 129.667c-.055.055-.11 1.111.334.666.055-.055.11-1.111-.334-.666z"/><path style="fill:#ffc195;stroke:none" d="m139 129 1 1-1-1z"/><path style="fill:#ff9349;stroke:none" d="m178 129 1 1-1-1z"/><path style="fill:#ffc299;stroke:none" d="m179 129 1 1-1-1z"/><path style="fill:#000;stroke:none" d="M514 129c1.448 7.439 3.937 14.345 4 22-4.983-2.326-11.189-7.531-16.895-4.529-8.551 4.5-8.158 24.254 2.899 25.196 6.089.518 10.901-5.336 15.996-7.667.648 2.394 1.032 3.536 3 5-.077-9.303-1.179-18.834-2.754-28-.835-4.863-1.747-9.44-6.246-12z"/><path style="fill:#ffac76;stroke:none" d="m115 130 1 1-1-1z"/><path style="fill:#ffc7a1;stroke:none" d="m142 130 1 1-1-1z"/><path style="fill:#ff9c5a;stroke:none" d="m175 130 1 1-1-1z"/><path style="fill:#ffe9dc;stroke:none" d="M176.667 130.333c-.445.445.611.389.666.334.445-.445-.611-.389-.666-.334z"/><path style="fill:#ffa162;stroke:none" d="M146.667 131.333c-.445.445.611.389.666.334.445-.445-.611-.389-.666-.334z"/><path style="fill:#ffa365;stroke:none" d="M170 131c1.248.685 1.548.749 3 1-1.248-.685-1.548-.749-3-1z"/><path style="fill:#ffddc7;stroke:none" d="M98 132v3c.696-1.554.696-1.446 0-3z"/><path style="fill:#ffd4b8;stroke:none" d="M150 132c1.248.685 1.548.749 3 1-1.248-.685-1.548-.749-3-1z"/><path style="fill:#ff8a3c;stroke:none" d="M153 132c3.163 1.327 6.586 1 10 1-3.163-1.327-6.586-1-10-1z"/><path style="fill:#ffa668;stroke:none" d="M163 132c1.248.685 1.548.749 3 1-1.248-.685-1.548-.749-3-1z"/><path style="fill:#ffd6ba;stroke:none" d="M166.667 132.333c-.445.445.611.389.666.334.445-.445-.611-.389-.666-.334z"/><path style="fill:#ffcfae;stroke:none" d="M114.333 133.667c-.055.055-.111 1.111.334.666.055-.055.111-1.111-.334-.666z"/><path style="fill:#ffb585;stroke:none" d="M98 135v3c.696-1.554.696-1.446 0-3z"/><path style="fill:#000;stroke:none" d="M470 135v13l-7 1c2.585 1.768 4.884 1.928 8 2-1.094 5.892-2.323 16.948 3 21-.172-8.343-5.11-21.606 7-22-2.585-1.769-4.884-1.928-8-2 0-4.497.899-10.032-3-13m14 1v2h2c-.545-1.635-.365-1.455-2-2z"/><path style="fill:#ff8b3e;stroke:none" d="M98.333 138.667c-.055.055-.11 1.111.334.666.055-.055.11-1.111-.334-.666z"/><path style="fill:#000;stroke:none" d="M278 138v34c4.194-6.139 2.036-17.764 1.999-25-.017-3.414-.058-6.159-1.999-9z"/><path style="fill:#ffb27d;stroke:none" d="M113 140v6c.951-2.285.951-3.715 0-6z"/><path style="fill:#000;stroke:none" d="M428 170c-6.666-2.603-14.773 1.354-20.427-5.225-5.308-6.174-2.901-22.34 7.412-21.589 5.128.373 6.875 5.958 3.693 9.6-3.046 3.488-7.339 4.112-11.678 4.214 4.074 1.709 9.205 1.177 12.656-1.804 3.987-3.444 4.022-10.119-.87-12.874-6.475-3.647-13.424 2.742-15.148 8.679-2.745 9.453 2.507 18.953 12.362 20.669 4.2.731 8.039-.414 12-1.67m-113-4c4.693 5.456 13.015 7.095 19.999 5.656 3.9-.804 8.41-4.082 6.574-8.601-2.505-6.167-11.323-4.869-16.572-6.194-2.458-.62-5.688-1.953-6.08-4.861-.445-3.299 3.491-4.693 6.08-4.872 4.387-.303 6.813 1.658 6.999 5.872 5.565-8.081-12.948-11.308-15.288-2.946-.777 2.777 1.075 5.328 3.397 6.632 5.231 2.938 13.012.77 17.554 5.017 2.65 2.478 1.053 5.587-1.722 7.118-3.371 1.859-8.377 1.397-11.941.39-3.072-.867-5.925-2.332-9-3.211m56 0c4.502 5.541 12.095 6.877 19 5.786 3.867-.611 8.416-3.181 7.623-7.771-1.661-9.626-16.858-3.668-22-9.668-2.181-2.544-.278-5.661 2.436-6.743 3.592-1.432 7.563.165 10.941 1.396l-1 4c5.157-7.895-12.513-11.064-15.377-3.775-1.031 2.622.397 5.463 2.525 7.033 5.02 3.704 12.925.856 17.529 5.256 2.818 2.693 1.667 6.317-1.736 7.744-3.137 1.316-7.725.975-10.941.129-3.089-.812-5.974-2.372-9-3.387m188 0c4.489 5.667 12.021 6.892 18.999 5.786 4.124-.653 8.94-3.848 7.215-8.682-2.286-6.405-11.976-4.916-17.213-6.359-2.388-.657-5.687-1.887-6.08-4.756-.453-3.31 3.509-4.656 6.08-4.865 4.632-.375 7.271 1.417 7.999 5.876 3.442-9.169-14.17-10.845-15.623-2.896-.522 2.854 1.316 5.373 3.682 6.732 4.987 2.865 12.327.577 16.618 4.678 2.819 2.693 1.666 6.317-1.736 7.744-3.137 1.315-7.725.975-10.941.129-3.089-.812-5.974-2.372-9-3.387m-124-17c.34 7.918 1.148 15.595 4 23 2.549-6.249-3.205-12.842.742-18.981 4.004-6.226 10.384-6.169 14.253 0C457.367 158.393 457 164.926 457 171c6.716-4.745.757-21.596-6.043-24.254-5.363-2.096-10.53 2.579-15.957 2.254m52-3c0 8.783-.487 17.75 3 26 2.652-6.334-.333-19.817-3-26z"/><path style="fill:#ff9b58;stroke:none" d="M98 147v3c.696-1.554.696-1.446 0-3z"/><path style="fill:#000;stroke:none" d="M299 147.629c-4.967.112-10.638 2.856-12.972 7.386-4.114 7.985 2.405 17.06 10.972 16.848 5.059-.125 10.371-2.991 12.258-7.867 2.713-7.011-2.267-16.548-10.258-16.367m243-.056c-4.827.36-10.416 3.041-12.682 7.467-4.296 8.39 2.718 17.415 11.682 16.735 5.672-.431 11.16-3.985 12.402-9.776 1.415-6.6-4.332-14.955-11.402-14.426z"/><path style="fill:#ffd2b6;stroke:none" d="m114 148 1 1-1-1z"/><path style="fill:none;stroke:none" d="M504.043 148.668c-10.477 3.154-8.124 23.391 3.957 19.678 4.609-1.416 9.627-6.192 9.638-11.331.013-5.79-8.613-9.846-13.595-8.347z"/><path style="fill:#ff9853;stroke:none" d="m114 149 1 1-1-1z"/><path style="fill:none;stroke:none" d="M298 149.83c-13.141-.746-16.721 18.539-3 19.913 13.595 1.362 18.472-19.034 3-19.913m243-.033c-13.102.132-15.995 19.76-2 20.005 13.995.244 17.28-20.159 2-20.005z"/><path style="fill:#ff9c5a;stroke:none" d="m115 151 1 1-1-1z"/><path style="fill:#ff9044;stroke:none" d="m99 152 1 1-1-1z"/><path style="fill:#ffd0b0;stroke:none" d="m116 152 1 1-1-1z"/><path style="fill:#ffcead;stroke:none" d="M87 153v5c.83-2.031.83-2.97 0-5z"/><path style="fill:#ffbd90;stroke:none" d="m99 153 1 1-1-1z"/><path style="fill:#ff9047;stroke:none" d="m117 154 1 1-1-1z"/><path style="fill:#ff9a57;stroke:none" d="m100 155 1 1-1-1z"/><path style="fill:#ff8f44;stroke:none" d="m118 155 1 1-1-1z"/><path style="fill:#ffb887;stroke:none" d="m121 157 1 1-1-1z"/><path style="fill:#ffcfae;stroke:none" d="m101 158 1 1-1-1z"/><path style="fill:#ffd5b8;stroke:none" d="m123 158 1 1-1-1z"/><path style="fill:#ff9149;stroke:none" d="m102 159 1 1-1-1z"/><path style="fill:#ffa366;stroke:none" d="m124 159 1 1-1-1z"/><path style="fill:#ffcfb0;stroke:none" d="m126 160 1 1-1-1z"/><path style="fill:#ffb98a;stroke:none" d="m103 161 1 1-1-1z"/><path style="fill:#ffa76c;stroke:none" d="m127 161 1 1-1-1z"/><path style="fill:#ff9046;stroke:none" d="m104 162 1 1-1-1z"/><path style="fill:#ffcfb1;stroke:none" d="M77 163c1.77.779 3.036.912 5 1-1.769-.779-3.036-.912-5-1z"/><path style="fill:#ffc49f;stroke:none" d="m130 163 1 1-1-1z"/><path style="fill:#ffad76;stroke:none" d="m131 164 1 1-1-1z"/><path style="fill:#ffd6bb;stroke:none" d="m106 165 1 1-1-1z"/><path style="fill:#ff964f;stroke:none" d="m132 165 1 1-1-1z"/><path style="fill:#ffd3b6;stroke:none" d="m107 166 1 1-1-1z"/><path style="fill:#ff8f45;stroke:none" d="m110 168 1 1-1-1z"/><path style="fill:#ffb482;stroke:none" d="m111 169 1 1-1-1z"/><path style="fill:#ffbc8f;stroke:none" d="m114 171 1 1-1-1z"/><path style="fill:#ff954d;stroke:none" d="m116 172 1 1-1-1z"/><path style="fill:#ffc39b;stroke:none" d="m117 173 1 1-1-1z"/><path style="fill:#ff9651;stroke:none" d="m140 173 1 1-1-1z"/><path style="fill:#fca;stroke:none" d="M91 174c1.769.779 3.036.912 5 1-1.769-.779-3.036-.912-5-1z"/><path style="fill:#ff9046;stroke:none" d="m119 174 1 1-1-1z"/><path style="fill:#ffb07b;stroke:none" d="m141 174 1 1-1-1z"/><path style="fill:#ffbc8f;stroke:none" d="M90.189 175.742c-4.853 2.139-5.903 10.765-7.613 15.258-2.963 7.784-6.815 14.866-12.746 20.83-4.27 4.293-11.842 8.385-14.084 14.209-2.681 6.966 3.989 11.42 10.254 9.397 4.321-1.395 7.675-5.248 11-8.154 10.467-9.152 16.937-20.21 21.333-33.282 2.139-6.362 6.018-18.167-4.33-18.897-1.235-.088-2.68.139-3.814.639z"/><path style="fill:#ffb07a;stroke:none" d="m120 175 1 1-1-1z"/><path style="fill:#ffc9a6;stroke:none" d="m142 175 1 1-1-1z"/><path style="fill:#ffcba9;stroke:none" d="m121 176 1 1-1-1z"/><path style="fill:#ff8f44;stroke:none" d="m143 177 1 1-1-1z"/><path style="fill:#ffb27f;stroke:none" d="m144 178 1 1-1-1z"/><path style="fill:#ffd0b2;stroke:none" d="M101 179v5c.83-2.03.83-2.97 0-5z"/><path style="fill:#ffbd90;stroke:none" d="m146 181 1 1-1-1z"/><path style="fill:#ffd6bb;stroke:none" d="M85.333 182.667c-.055.055-.11 1.111.334.666.055-.055.11-1.111-.334-.666z"/><path style="fill:#ffd8be;stroke:none" d="m128 183 1 1-1-1z"/><path style="fill:#ffa466;stroke:none" d="m147 183 1 1-1-1z"/><path style="fill:#ffc8a3;stroke:none" d="m129 184 1 1-1-1z"/><path style="fill:#ffa86f;stroke:none" d="m130 185 1 1-1-1z"/><path style="fill:#ff9349;stroke:none" d="m148 185 1 1-1-1z"/><path style="fill:#ffd6b9;stroke:none" d="m149 186 1 1-1-1z"/><path style="fill:#ffb380;stroke:none" d="m132 188 1 1-1-1z"/><path style="fill:#ffd7be;stroke:none" d="m150 188 1 1-1-1z"/><path style="fill:#ff9a53;stroke:none" d="m150 189 1 1-1-1z"/><path style="fill:#ffd4b7;stroke:none" d="m133 190 1 1-1-1z"/><path style="fill:#ff9752;stroke:none" d="m134 191 1 1-1-1z"/><path style="fill:#ffac75;stroke:none" d="m151 191 1 1-1-1z"/><path style="fill:#ffa162;stroke:none" d="m135 193 1 1-1-1z"/><path style="fill:#ffcdac;stroke:none" d="m152 193 1 1-1-1z"/><path style="fill:#ff9b58;stroke:none" d="m152 194 1 1-1-1z"/><path style="fill:#ffa264;stroke:none" d="m136 195 1 1-1-1z"/><path style="fill:#ffc8a4;stroke:none" d="m153 196 1 1-1-1z"/><path style="fill:#ff8e43;stroke:none" d="m137 197 1 1-1-1z"/><path style="fill:#ff9b58;stroke:none" d="m153 197 1 1-1-1z"/><path style="fill:#ffc59d;stroke:none" d="m137 198 1 1-1-1z"/><path style="fill:#ffd3b3;stroke:none" d="m154 199 1 1-1-1z"/><path style="fill:#f95;stroke:none" d="m138 200 1 1-1-1z"/><path style="fill:#ff8735;stroke:none" d="M154.333 200.667c-.055.055-.111 1.111.334.666.055-.055.111-1.111-.334-.666z"/><path style="fill:#ff964f;stroke:none" d="m139 203 1 1-1-1z"/><path style="fill:#ffba8e;stroke:none" d="M155.333 203.667c-.055.055-.111 1.111.334.666.055-.055.111-1.111-.334-.666z"/><path style="fill:#ffdcc5;stroke:none" d="M139.333 204.667c-.055.055-.111 1.111.334.666.055-.055.111-1.111-.334-.666z"/><path style="fill:#ff8433;stroke:none" d="M155.333 205.667c-.055.055-.111 1.111.334.666.055-.055.111-1.111-.334-.666z"/><path style="fill:#ffa466;stroke:none" d="M140.333 207.667c-.055.055-.111 1.111.334.666.055-.055.111-1.111-.334-.666z"/><path style="fill:#ffe8d8;stroke:none" d="M156 207v3c.696-1.554.696-1.446 0-3z"/><path style="fill:#ffd1b4;stroke:none" d="M140.333 209.667c-.055.055-.111 1.111.334.666.055-.055.111-1.111-.334-.666z"/><path style="fill:#ffba8c;stroke:none" d="M156 210v3c.696-1.554.696-1.446 0-3z"/><path style="fill:#ff9047;stroke:none" d="M156 213v3c.696-1.554.696-1.446 0-3z"/><path style="fill:#ff9e5d;stroke:none" d="M141.333 216.667c-.055.055-.111 1.111.334.666.055-.055.111-1.111-.334-.666z"/><path style="fill:#ffb786;stroke:none" d="M141.333 218.667c-.055.055-.111 1.111.334.666.055-.055.111-1.111-.334-.666z"/><path style="fill:#ffdfca;stroke:none" d="M157 218v3c.696-1.554.696-1.446 0-3z"/><path style="fill:#ffe5d4;stroke:none" d="M141 220v4c.71-1.759.71-2.241 0-4z"/><path style="fill:#ffbd93;stroke:none" d="M157.333 221.667c-.055.055-.111 1.111.334.666.055-.055.111-1.111-.334-.666z"/><path style="fill:#ffa365;stroke:none" d="M157.333 223.667c-.055.055-.111 1.111.334.666.055-.055.111-1.111-.334-.666z"/><path style="fill:#ff781d;stroke:none" d="M157 225v6c.951-2.285.951-3.715 0-6z"/><path style="fill:#ff9957;stroke:none" d="M142 227v3c.696-1.554.696-1.446 0-3z"/><path style="fill:#ffe3d1;stroke:none" d="M142.333 230.667c-.055.055-.111 1.111.334.666.055-.055.111-1.111-.334-.666z"/><path style="fill:#ffb685;stroke:none" d="m157 231 1 1-1-1z"/><path style="fill:#ffc8a4;stroke:none" d="m205 231 1 1-1-1z"/><path style="fill:#ff9c59;stroke:none" d="m143 232 1 1-1-1z"/><path style="fill:#ff8d41;stroke:none" d="m191 232 1 1-1-1z"/><path style="fill:#ffb989;stroke:none" d="m156 233 1 1-1-1z"/><path style="fill:#ffd8be;stroke:none" d="m191 233 1 1-1-1z"/><path style="fill:#ffc7a2;stroke:none" d="m204 233 1 1-1-1z"/><path style="fill:#ffd3b6;stroke:none" d="m144 234 1 1-1-1z"/><path style="fill:#ffaa70;stroke:none" d="m155 234 1 1-1-1z"/><path style="fill:#ffcba8;stroke:none" d="m192 234 1 1-1-1z"/><path style="fill:#ffb280;stroke:none" d="m203 234 1 1-1-1z"/><path style="fill:#ffc195;stroke:none" d="m154 235 1 1-1-1z"/><path style="fill:#ffdac0;stroke:none" d="m193 235 1 1-1-1z"/><path style="fill:#ffcfae;stroke:none" d="m202 235 1 1-1-1z"/><path style="fill:#ffd1b3;stroke:none" d="M60 236c1.769.779 3.036.912 5 1-1.769-.779-3.036-.912-5-1z"/><path style="fill:#ffd4b8;stroke:none" d="m147 236 1 1-1-1z"/><path style="fill:#ff9650;stroke:none" d="M148 236c1.506.683 2.315.826 4 1-1.506-.683-2.315-.826-4-1z"/><path style="fill:#ffc8a2;stroke:none" d="m152 236 1 1-1-1z"/><path style="fill:#ffd7bd;stroke:none" d="m195 236 1 1-1-1z"/><path style="fill:#ff9d59;stroke:none" d="M196 236c1.506.683 2.315.826 4 1-1.506-.683-2.315-.826-4-1z"/></svg>